<svg xmlns="http://www.w3.org/2000/svg" id="Layer_1" x="0" y="0" version="1.1" viewBox="0 0 110.94 60" xml:space="preserve"><defs/><style>.st1{fill-rule:evenodd;clip-rule:evenodd;fill:#d6ab75}</style><path fill="#010100" fill-rule="evenodd" d="M0 0h110.94v60H0z" clip-rule="evenodd"/><path d="M91.06 55.22a1.38 1.38 0 000-2.76 1.38 1.38 0 000 2.76zm7.3 0a1.38 1.38 0 000-2.76 1.38 1.38 0 000 2.76zM86.51 6a2.84 2.84 0 10-5.68 0 2.84 2.84 0 005.68 0zm-5 .07a2.2 2.2 0 114.4 0 2.2 2.2 0 01-4.4 0z" class="st1"/><path d="M84.97 6.16a1.38 1.38 0 00-2.76 0 1.38 1.38 0 002.76 0zm-28.16 0a1.38 1.38 0 00-2.76 0 1.38 1.38 0 002.76 0zm35.63 0a1.38 1.38 0 00-2.76 0 1.38 1.38 0 002.76 0z" class="st1"/><path d="M93.82 6a2.84 2.84 0 10-5.68 0 2.84 2.84 0 005.68 0zm-5.01.07a2.2 2.2 0 114.4 0 2.2 2.2 0 01-4.4 0zM102.09 54a2.84 2.84 0 105.68 0 2.84 2.84 0 00-5.68 0zm5.09-.07a2.2 2.2 0 11-4.42.02 2.2 2.2 0 014.42-.02zM99.74 6.16a1.38 1.38 0 00-2.76 0 1.38 1.38 0 002.76 0zm-35.63 0a1.38 1.38 0 00-2.76 0 1.38 1.38 0 002.76 0zM95.44 54a2.84 2.84 0 105.68 0 2.84 2.84 0 00-5.68 0zm5.09-.07a2.2 2.2 0 11-4.4.02 2.2 2.2 0 014.4-.02zM71.74 6.16a1.38 1.38 0 00-2.76 0 1.38 1.38 0 002.76 0z" class="st1"/><path d="M65.79 6a2.84 2.84 0 10-5.68 0 2.84 2.84 0 005.68 0zm-5 .07a2.2 2.2 0 014.41 0 2.2 2.2 0 11-4.41 0zM73.1 6a2.84 2.84 0 10-5.68 0 2.84 2.84 0 005.68 0zm-5.01.07a2.2 2.2 0 114.4 0 2.2 2.2 0 01-4.4 0zM58.49 6a2.84 2.84 0 10-5.68 0 2.84 2.84 0 005.68 0zm-5.01.07a2.2 2.2 0 014.4 0 2.2 2.2 0 01-2.2 2.21 2.2 2.2 0 01-2.2-2.21zm24.92.09a1.38 1.38 0 00-2.76 0 1.38 1.38 0 002.76 0z" class="st1"/><path d="M79.86 6a2.84 2.84 0 10-5.68 0 2.84 2.84 0 005.68 0zm-5.01.07a2.2 2.2 0 114.4 0 2.2 2.2 0 01-4.4 0zM33.59 24.62c.1 0 .16-.04.22-.13s.1-.23.1-.38-.04-.31-.11-.41a.34.34 0 00-.37-.15v-.02a.78.78 0 01-.35.08h-.02c.13.31.24.63.34.95.07.04.14.06.19.06zm1.68-9.85l-.42.02a4.3 4.3 0 00-1.56.42c-.14.07-.38.31-.6.55l-.14.15h.06c.96.01 1.79.52 2.51 1.11.73.6 1.42 1.25 2.03 1.98-.25.01-.42-.13-.64-.2a3.44 3.44 0 00-1.19-.05c-.06 0-.33.12-.6.24-.18.07-.37.15-.55.2.95.89 1.95 1.82 3.19 2.11.24.06.5.08.76.08.6 0 1.22-.13 1.8-.29.37-.09.99-.48 1.52-.49a.9.9 0 01.23.03c-.42-1.1-.95-2.09-1.57-2.86l-.31-.39.48.13c1.05.29 1.86.98 2.46 1.86.11-.35.17-.67.17-.98 0-1.2-.76-2.22-1.87-3.14-.14-.12-.58-.37-1.05-.67-.47-.3-.99-.64-1.35-.96l-.15-.15-.01.34c0 .61.1 1.17.26 1.87l.09.39-.34-.22a5.8 5.8 0 00-3.21-1.08zM16.53 17.6c.16-.26.32-.62.42-.99h-.02l.08-.25c.03-.16.05-.32.05-.47-.02-.53-.18-.89-.77-.98l-.19-.01c-.5 0-.86.3-1.12.74-.24.42-.37.97-.37 1.43l.02.27c0 .31-.06.67-.19 1.08.68-.33 1.38-.6 2.09-.82z" class="st1"/><path d="M31.76 42.34c2.72-1.2 5.61-2.73 8.64-3.24-.76-.1-1.5-.22-2.23-.22-.55 0-1.05.09-1.58.25-.45.13-.87.46-1.33.53.18-.15.3-.35.48-.5l.58-.45c1.35-1.13 2.37-2.61 3.63-3.84a7.76 7.76 0 012.65-1.86c.15-.06.29-.08.43-.08.39 0 .71.2.99.36.28.17.54.32.79.32.08 0 .17-.01.26-.05.46-.18.57-.37.57-.52.01-.2-.22-.5-.56-.72a2.14 2.14 0 00-1.08-.38h-.06a4.1 4.1 0 00-2 .81c-.3.21-.55.45-.82.7-.25.23-.61.33-.83.61.2-.61.7-1.06 1.08-1.56 1.46-1.88 2.6-3.98 3.98-5.91 1.1-1.53 2.64-2.5 4.31-2.5.79 0 1.6.22 2.4.7.19-.25.4-.49.63-.72-.14-.33-.55-.64-1.1-.86a5.91 5.91 0 00-2.05-.38c-.58 0-1.11.05-1.56.45.12-.42.38-.8.56-1.2.16-.35.31-.72.47-.96.38-.54.81-1.03 1.27-1.49 2.23-2.21 5.15-4.23 8.38-4.56.68-.07 1.48-.14 2.3-.14 1.56 0 3.22.23 4.32 1.19a6 6 0 011.67 3.22c.27-.26.36-.57.37-.94 0-.49-.18-.97-.41-1.4-.23-.43-.6-.74-.82-1.17.13.25.82.41 1.06.52.44.19.91.28 1.35.46.67.27 1.36.54 2.04.83h.01c.63.26 1.25.54 1.86.83l.01-.01.05.04c.54.26 1.07.53 1.59.83.88.5 1.76.96 2.58 1.53 2.26 1.57 5.84 3.29 7.46 5.72a2.57 2.57 0 011.29-.65c.17-.06.35-.11.53-.14-1.69-1.43-3.64-2.59-5.34-4.13l-.36-.33.49.05c.47.05 1.01.08 1.57.08a9.4 9.4 0 003.81-.68c1.09-.52 1.84-1.35 1.88-2.75v-.13a4.9 4.9 0 00-.7-2.6 2.58 2.58 0 00-2.23-1.23H85c-.76 0-1.24.19-1.53.45-.29.26-.4.6-.41.96 0 .35.12.7.29.96.18.26.4.41.58.41.2 0 .46-.16.67-.75l.05-.13.13.02c1.02.17 1.5.75 1.49 1.41-.01.91-.8 1.89-1.79 2.3-.78.32-1.62.46-2.47.46-3.79-.01-8.07-2.67-11.09-3.94-3.4-1.43-6.92-2.65-10.41-2.65-2.31 0-4.6.53-6.84 1.88a23.33 23.33 0 00-5.89 5.23 31.1 31.1 0 00-2.34 3.25c-.34.54-.63 1.12-.97 1.66-.29.46-.82.93-.93 1.48.17-.8.27-1.64.27-2.45 0-1.61-.38-3.42-1.2-4.79l-.08-.03.02-.05a4.42 4.42 0 00-1.91-1.76 13.62 13.62 0 012.22 7.39c0 2.2-.61 4.31-2.15 5.68l-.42.37.15-.54c.09-.31.14-.72.14-1.18 0-1.02-.23-2.29-.7-3.28-.47-1-1.16-1.69-2.06-1.68-.26 0-.55.06-.86.19-.6.26-.81.67-.81 1.09 0 .28.11.56.28.77.18.2.42.33.69.33.27 0 .6-.13.95-.5l.11-.12.12.1c.89.79 1.24 2.02 1.24 3.3 0 1.84-.72 3.81-1.74 4.85a82.14 82.14 0 01-3.79 3.66c-.62.56-1.47 1.6-2.35 1.72.32-.44.8-.8 1.16-1.21a7.7 7.7 0 001.96-5.32c0-1.06-.14-2.16-.35-3.3-.56 1.92-1.94 3.09-2.67 4.94-.47 1.16-.35 2.49-.48 3.72-.13 1.22-.57 2.37-2.17 3l-.42.17.21-.4a4.49 4.49 0 00-.26-4.32 2.29 2.29 0 00-2.41-1.06c-.65.11-1.42.47-1.78 1-.2.29-.26.53-.26.76 0 .23.06.46.1.72.24-.36.59-.57.99-.58.38 0 .77.19 1.11.58.38.43.53.98.53 1.53 0 .86-.35 1.76-.83 2.35a3.82 3.82 0 01-2.44 1.31c-.44.06-.89.1-1.32.2-.11.03-.23.1-.34.1.35-.42.54-.88.54-1.43 0-.48-.13-.98-.33-1.4a4.03 4.03 0 01-2.26 2.67c-1.2.59-2.68.79-4.07.79a14.1 14.1 0 01-2.87-.29c-3.76-.8-7.18-2.83-10.05-5.32-.29.16-.62.28-.95.37 1.04 1.87 3.64 3.32 5.48 4.32a22.75 22.75 0 007.28 2.52 14.4 14.4 0 004.74-.01c.8-.13 1.62-.38 2.43-.61 1.69-.48 3.25-1.31 4.92-1.93l.12-.05.07.11c.72 1.13 1.74 1.37 2.9 1.38.93 0 1.93-.17 2.84-.17.86 0 1.67.16 2.26.79-.29-1.57-1.7-2.91-3.26-3.39h-.01c.04-.02-.29-.11-.31-.12l-.32-.04c-.3-.07-.59-.14-.9-.11-.14.01-.64-.01-.74.07.62-.47 1.56-.34 2.26-.14z" class="st1"/><path d="M47.23 42.15h.02c1.25 0 2.24.29 3.29.82-.18-.51-.38-1-.63-1.48-1.16-2.2-2.99-3.64-5.35-3.64-.27 0-.56.02-.84.06l-.31.04.14-.28c.38-.73 1-1.24 1.62-1.72a7.97 7.97 0 00-1.11-.07c-2.1 0-4.36.75-5.14 2.7.65.06 1.28.16 1.93.24.59.07 1.2.06 1.78.16-.66.32-1.51.31-2.22.43-.24.04-2.4.44-2.4.62.01 1.81.71 3.52 2.61 3.93.2.04.84.07 1.54.11.71.04 1.5.1 2.06.24l.31.09a4.68 4.68 0 00-.7-1.28 2.1 2.1 0 00-.47-.42c-.15-.1-.4-.14-.51-.3.48-.01.96.13 1.44.13.94.01 2-.38 2.94-.38zM101.12 6a2.84 2.84 0 10-5.68 0 2.84 2.84 0 005.68 0zm-5 .07a2.2 2.2 0 014.4 0 2.2 2.2 0 11-4.4 0zM88.14 54a2.84 2.84 0 105.68 0 2.84 2.84 0 00-5.68 0zm5.08-.07a2.2 2.2 0 11-4.42.02 2.2 2.2 0 014.42-.02zM31.87 20a1 1 0 00-.4.09v-.01c-.17.05-.36.08-.55.08l-.17-.01c.46.44.91.99 1.32 1.61l.12.01c.37 0 .61-.29.62-.73v-.01c0-.58-.42-1.03-.94-1.03zm-.54-2.12a2.48 2.48 0 00-1.11-.23c-.36 0-.73.06-1.04.14-.16.3-.44.55-.77.73.64.33 1.25.71 1.81 1.16.22.1.47.15.71.15.29 0 .57-.08.77-.22a.74.74 0 00.31-.64 1.18 1.18 0 00-.68-1.09zm2.14 5.19c.1-.13.16-.32.16-.52-.01-.39-.2-.73-.7-.73h-.09a.84.84 0 01-.55.26c.22.37.43.76.62 1.17l.17.03c.16 0 .29-.07.39-.21zm.49 2.74c0-.32-.08-.63-.24-.88a.5.5 0 01-.13.02l-.1-.01c.16.61.25 1.23.25 1.82.14-.29.22-.63.22-.95zm-20.83-9.76c-.72 0-1.5.54-1.5 1.49 0 .17.03.36.08.56v.01c.21.51.29 1.1.3 1.61a18.6 18.6 0 012-1.12c.2-.51.29-.93.29-1.27v-.06h-.01l-.01-.16v-.02c-.09-.73-.59-1.02-1.15-1.04zm97.81 38.23v-.88a1.27 1.27 0 000 .88zM107.77 6a2.84 2.84 0 10-5.68 0 2.84 2.84 0 005.68 0zm-5 .07a2.2 2.2 0 114.4 0 2.2 2.2 0 01-4.4 0zm2 49.15a1.38 1.38 0 000-2.76 1.38 1.38 0 000 2.76z" class="st1"/><path d="M106.15 6.16a1.38 1.38 0 00-2.76 0 1.38 1.38 0 002.76 0zm-.88 38.12c-.31.41-.76.72-1.36.98l.35.13c.35.14.77.28.83.27l.26.01c.54 0 1.15-.09 1.58-.32.88-.49 1.23-1.36 1.24-2.35a5.44 5.44 0 00-2.03-4.13c-.46-.1-.92-.22-1.38-.35a6.8 6.8 0 011.05 3.68v.05c0 .88-.16 1.52-.54 2.03zm5.67 4.49H0v.57h110.94zm-50.68-4.89c0 .48.12 1.06.37 1.5.26.44.62.74 1.14.74l.16-.01c.33-.04.52-.16.64-.34.13-.18.18-.43.18-.71 0-.35-.09-1.58-.5-1.73-.73-.25-1.44-.55-2.14-.89a3.57 3.57 0 01.14 1.41l.01.03zm25.34 2.54l.48-.18c.41-.14.85-.27.97-.34.57-.3 1.06-.62 1.43-1.12.5-.65.78-1.48.78-2.28 0-.47-.09-.93-.29-1.36l-.27.29c-.45.41-1.02.68-1.58.86-.21.06-.48.07-.76.07-.24 0-.45-.02-.69 0-.12.01-.67-.04-.74.02.49-.44 1.1-.75 1.61-1.18.26-.22.51-.45.74-.71.06-.07.56-.76.59-.76-.47-.1-.92-.15-1.37-.15-1.54 0-2.99.56-4.44 1.28.41.44 1.33.69 1.94.68h.26l-.11.23c-.74 1.57-2.56 2.35-4.18 2.61l.15.08c.3.16.61.33.78.38.49.14 1.07.32 1.55.38.19.02.39.03.58.03a6.4 6.4 0 003.42-1.18c-.26.31-.41.7-.55 1.08-.06.18-.14 1.2-.3 1.27zm24.37-7.37l.03.01.79.02h.14v-1.52a7.44 7.44 0 01-2.59-.57l-.4-.18.42-.13c.9-.26 1.46-1.32 1.45-2.32 0-.53-.15-1.04-.47-1.39a1.77 1.77 0 00-1.39-.62c-.4 0-.82.1-1.24.25.3.09.54.27.72.5a2.25 2.25 0 01-.12 2.65c-.52.61-1.27.85-2.08.85-2.03-.01-4.58-1.4-5.89-2.29a4.22 4.22 0 01.06 1.47 20.85 20.85 0 006.74 2.76l.02-.04.09.06c1.23.27 2.48.44 3.72.49zM62.73 55.22a1.38 1.38 0 000-2.76 1.38 1.38 0 000 2.76zm-47.89 0a1.38 1.38 0 000-2.76 1.38 1.38 0 000 2.76zM25.86 54a2.84 2.84 0 105.68 0 2.84 2.84 0 00-5.68 0zm5.09-.07a2.2 2.2 0 01-2.2 2.21 2.21 2.21 0 01-2.21-2.21 2.2 2.2 0 014.41 0zM18.9 54a2.84 2.84 0 105.68 0 2.84 2.84 0 00-5.68 0zm5.09-.07a2.2 2.2 0 11-4.42.02 2.2 2.2 0 014.42-.02zm25.03 1.29a1.38 1.38 0 000-2.76 1.38 1.38 0 000 2.76z" class="st1"/><path d="M21.74 55.22a1.38 1.38 0 000-2.76 1.38 1.38 0 000 2.76zm48.62 0a1.38 1.38 0 000-2.76 1.38 1.38 0 000 2.76zM51.83 6a2.84 2.84 0 10-5.68 0 2.84 2.84 0 005.68 0zm-5 .07a2.2 2.2 0 114.4 0 2.2 2.2 0 01-4.4 0zM1.29 7.54a1.38 1.38 0 000-2.76c-.59 0-1.1.38-1.29.9v.95c.19.53.7.91 1.29.91zm6.74 47.68a1.38 1.38 0 000-2.76 1.38 1.38 0 000 2.76zM11.92 54a2.84 2.84 0 105.68 0 2.84 2.84 0 00-5.68 0zm5.09-.07a2.2 2.2 0 11-4.4.02 2.2 2.2 0 014.4-.02z" class="st1"/><path d="M67.41 54a2.84 2.84 0 105.68 0 2.84 2.84 0 00-5.68 0zm5.09-.07c0 1.22-.99 2.21-2.2 2.21s-2.2-.99-2.21-2.21a2.2 2.2 0 014.41 0zM46.15 54a2.84 2.84 0 105.68 0 2.84 2.84 0 00-5.68 0zm5.09-.07a2.2 2.2 0 11-4.42.02 2.2 2.2 0 014.42-.02zm-8.63 1.29a1.38 1.38 0 000-2.76 1.38 1.38 0 000 2.76zm12.82 0a1.38 1.38 0 000-2.76 1.38 1.38 0 000 2.76zm-26.78 0a1.38 1.38 0 000-2.76 1.38 1.38 0 000 2.76z" class="st1"/><path d="M52.81 54a2.84 2.84 0 105.68 0 2.84 2.84 0 00-5.68 0zm5.08-.07a2.2 2.2 0 11-4.4.02 2.2 2.2 0 014.4-.02zM32.84 54a2.84 2.84 0 105.68 0 2.84 2.84 0 00-5.68 0zm5.09-.07a2.2 2.2 0 11-4.42.02 2.2 2.2 0 014.42-.02zm22.18.07a2.84 2.84 0 105.68 0 2.84 2.84 0 00-5.68 0zm5.09-.07a2.2 2.2 0 01-2.2 2.21 2.21 2.21 0 01-2.21-2.21 2.2 2.2 0 014.41 0z" class="st1"/><path d="M35.71 55.22a1.38 1.38 0 000-2.76 1.38 1.38 0 000 2.76zM39.82 54a2.84 2.84 0 105.68 0 2.84 2.84 0 00-5.68 0zm5.09-.07a2.2 2.2 0 01-2.2 2.21 2.21 2.21 0 01-2.21-2.21 2.2 2.2 0 014.41 0zM5.1 54a2.84 2.84 0 105.68 0 2.84 2.84 0 00-5.68 0zm5.09-.07a2.2 2.2 0 11-4.42.02 2.2 2.2 0 014.42-.02zM38.52 6a2.84 2.84 0 10-5.68 0 2.84 2.84 0 005.68 0zm-5 .07a2.2 2.2 0 114.4 0 2.2 2.2 0 01-4.4 0z" class="st1"/><path d="M37.09 6.16a1.38 1.38 0 00-2.76 0 1.38 1.38 0 002.76 0zM80.83 54a2.84 2.84 0 105.68 0 2.84 2.84 0 00-5.68 0zm5.09-.07c0 1.22-.99 2.21-2.2 2.21a2.2 2.2 0 010-4.41 2.2 2.2 0 012.2 2.2zM28.7 8.84a2.84 2.84 0 100-5.68 2.84 2.84 0 000 5.68zm.04-4.97a2.2 2.2 0 010 4.41 2.21 2.21 0 01-2.21-2.21c.01-1.22 1-2.2 2.21-2.2z" class="st1"/><path d="M83.59 55.22a1.38 1.38 0 000-2.76 1.38 1.38 0 000 2.76zM50.4 6.16a1.38 1.38 0 00-2.76 0 1.38 1.38 0 002.76 0zM27.67 16.37c-.6-.01-1.21.22-1.36.54-.07.24-.22.46-.45.61.74.22 1.47.49 2.17.81.4-.14.73-.42.88-.71l-.02-.07.06-.02a.55.55 0 00.04-.25c0-.21-.09-.42-.34-.65-.17-.16-.56-.26-.98-.26zM43.99 6.16a1.38 1.38 0 00-2.76 0 1.38 1.38 0 002.76 0z" class="st1"/><path d="M45.5 6a2.84 2.84 0 10-5.68 0 2.84 2.84 0 005.68 0zm-5 .07a2.2 2.2 0 112.21 2.21 2.21 2.21 0 01-2.21-2.21zm-14.56 5.16h85v-.57H0v.57zM10.79 6A2.84 2.84 0 105.1 6a2.84 2.84 0 105.69 0zm-5.01.07a2.2 2.2 0 014.41 0 2.2 2.2 0 01-2.2 2.21 2.21 2.21 0 01-2.21-2.21zM74.18 54a2.84 2.84 0 105.68 0 2.84 2.84 0 00-5.68 0zm5.08-.07a2.2 2.2 0 11-4.42.02 2.2 2.2 0 014.42-.02zM28.65 7.54a1.38 1.38 0 000-2.76 1.38 1.38 0 000 2.76zM16.22 6.16a1.38 1.38 0 00-2.76 0 1.38 1.38 0 002.76 0z" class="st1"/><path d="M9.41 6.16a1.38 1.38 0 00-2.76 0 1.38 1.38 0 002.76 0zm67.61 49.06a1.38 1.38 0 000-2.76 1.38 1.38 0 000 2.76zM17.6 6a2.84 2.84 0 10-5.68 0 2.84 2.84 0 005.68 0zm-5 .07a2.2 2.2 0 014.4 0 2.2 2.2 0 11-4.4 0zM24.58 6a2.84 2.84 0 10-5.68 0 2.84 2.84 0 005.68 0zm-5 .07a2.2 2.2 0 114.4 0 2.2 2.2 0 01-4.4 0z" class="st1"/><path d="M23.12 6.16a1.38 1.38 0 00-2.76 0 1.38 1.38 0 002.76 0zM4.13 6A2.84 2.84 0 000 3.48v.84a2.2 2.2 0 111.33 3.95C.83 8.28.37 8.1 0 7.82v.7A2.84 2.84 0 004.13 6zm56.19 27.05c.83 0 1.54-.73 1.54-1.66 0-.32-.08-.67-.28-1.02-.53.26-1.11.41-1.71.41l-.36-.02.01.15a2.9 2.9 0 01-.53 1.48c.44.48.91.66 1.33.66zm-1.56 11.79c.81 0 1.11-.56 1.15-1.22.03-.48-.07-1-.21-1.38-.7-.36-1.38-.77-2.03-1.21-.02.5-.11 1.06-.32 1.57l-.03.07c-.07.23-.11.45-.11.65 0 .96.8 1.52 1.55 1.52zm-5.92-2.72l.25-.02a1.83 1.83 0 001.31-.93l.12-.2c.26-.46.82-1.49.58-2.02-.14-.32-.53-.54-.76-.8-.07-.08-.7-.77-.67-.83a6.93 6.93 0 01-1.49 2.26c-.14.36-.25.87-.25 1.32 0 .34.06.66.21.87.15.22.34.35.7.35zm-4.27-13.14a2.9 2.9 0 01-.6-.06c-.55.23-.88.83-.88 1.4 0 .79.8 1.3 1.51 1.23a2.75 2.75 0 001.42-.61c.26-.21.55-.45.71-.75.19-.35.06-.79.06-1.17l.02-.55c-.58.27-1.45.51-2.24.51z" class="st1"/><path d="M51.66 25.37c-.36-.1-.78-.16-1.21-.15-1.41 0-2.93.57-3.27 1.89-.05.2-.08.37-.08.52 0 .4.15.63.41.8.32.21.68.24 1.05.24.64 0 1.85-.03 2.21-.67.21-.37.2-.87.3-1.28.05-.14.46-1.39.59-1.35zm.78 13.46c.49-.61.86-1.35 1-1.82-.53-.72-.99-1.47-1.37-2.26-.53.19-.9.83-1.28 1.5-.21.36-.43.73-.71 1.01a3.48 3.48 0 00-.43 1.48c.01.42.15.77.61 1.04.18.1.35.15.53.15.65-.01 1.27-.62 1.65-1.1zm3.23 4.75l.28-.03c.52-.12.85-.5 1.08-1l.04-.13h.01c.2-.51.28-1.12.28-1.61-.65-.46-1.27-.97-1.85-1.51-.17.56-.36 1.24-.69 1.83-.08.15-.18.3-.28.44-.1.19-.14.39-.14.59 0 .35.14.72.37.98.22.26.53.44.9.44zm3.53-12.66c0-.13-.02-.25-.06-.36-.23-.08-.39-.11-.54-.14l-.21-.01c-.44 0-.75.16-1.01.42s-.47.63-.67 1.04c-.3.6-.56 1.29-1.03 1.76l.63.02.29-.02c.51-.1.88-.3 1.34-.58.5-.31 1.27-1.37 1.26-2.13zm-1.1 2.4l-.41.24a2.96 2.96 0 00-.55 1.65c0 .34.08.65.26.87.18.22.45.38.9.41h.09c.64 0 1.02-.47 1.27-1.15.23-.65.31-1.45.31-2-.4-.08-.8-.3-1.18-.67-.22.28-.47.51-.69.65zm-2.17-3.08c.19-.3.27-.73.27-1.17 0-.53-.09-1.07-.3-1.56.39.3.67.57.98.95l1 1.16c.27.3.41.38.58.43l.18.05h.01l.25.06-.18-.3-.41-.62c-.53-.58-1.16-1.19-1.55-1.86.41.12.84.28 1.28.29.66.01 1.5-.3 1.67-.55.11-.14.18-.43.18-.74a2 2 0 00-.22-.93c-.15-.26-.33-.4-.59-.4l-.17.02c-.36.09-.45.29-.47.58-.01.38.25.88.5 1.09l.14.12-.14.12c-.29.24-.65.34-1.01.34-.79 0-1.62-.43-2.12-.84a7.5 7.5 0 01-.54-.56l-.36-.41c-.17.15-.34.3-.49.47a3.63 3.63 0 011.39 2.53c0 .37-.11.73-.4 1l-.11.1-.11-.1c-.26-.23-.47-.3-.61-.3s-.24.06-.33.18a.88.88 0 00-.13.48c.01.43.24.85.81.86h.02c.51 0 .79-.19.98-.49zm6.99-.92c-.07.09-1.02.97-1.06.9.22.39.32.79.32 1.17v.05l.88-.02c.35 0 .73.01 1.08.07v-.01l.17.01c.32 0 .52-.15.67-.4.15-.25.21-.59.21-.92 0-.23-.03-.45-.08-.63a1.24 1.24 0 00-1.16-.87c-.47.01-.76.31-1.03.65zm-3.56.98l.07.14a3.68 3.68 0 002.91-.96 3.24 3.24 0 001.08-2.37l-.01-.2c-.15.17-.36.29-.56.4-.4.2-.85.32-1.09.4-1.36.43-1.94 1.24-2.4 2.59zm2.13 2.64c-.32.27-.73.44-1.17.44h-.03a16.62 16.62 0 00-.09 1.86c.07.3.22.54.44.74.29.27.69.44 1.07.44.36 0 .71-.14.98-.49.48-.62.07-1.42-.32-1.96-.07-.1-.78-1.12-.88-1.03zm2.17 1.38c.56 0 1.15-.4 1.44-1 .13-.27.19-.49.19-.66 0-.38-.24-.58-.67-.73a5.37 5.37 0 00-1.55-.18l-.92.02c-.07.36-.22.68-.44.94.33.3.75.73 1.06 1.23.28.27.58.38.89.38zm6.1-3.07a1.54 1.54 0 01.76.02c.4-.26.73-.73.72-1.17a.85.85 0 00-.18-.53c-.22-.3-.61-.41-1.06-.45-.34-.04-.7-.04-1.03-.08l.42 1.05c.13.36.25.76.37 1.16zm1.16 2.15l-.02-.02c.34-.25.46-.52.46-.77a.98.98 0 00-.38-.73c-.23-.2-.59-.34-.9-.34a.99.99 0 00-.24.03c.19.67.36 1.35.57 2.01.18-.11.35-.17.51-.18zm-.97-4.62l.01-.02c.07.02.13.02.19.02.24 0 .42-.12.57-.33.14-.21.22-.51.22-.81 0-.53-.24-1.03-.72-1.18a1.27 1.27 0 00-.34-.05c-.6 0-1.35.41-1.9.69.3.51.58 1.03.83 1.57.3.07.72.08 1.14.11zm-2.63-4.97c.29-.39.5-.91.5-1.37 0-.42-.15-.78-.55-1.04a1.26 1.26 0 00-.71-.19c-.57 0-1.19.25-1.64.58-.48.35-.81.81-.81 1.26.74.46 1.41 1 2.01 1.62a4.2 4.2 0 011.2-.86zm1.94 2.36v-.02c.53-.06.87-.59.87-1.13l-.02-.21a1.35 1.35 0 00-1.08-1.02c-.09-.02-.19-.02-.29-.02-.58 0-1.06.26-1.55.52-.07.04-.93.53-.86.6.55.59 1.03 1.24 1.47 1.93.4-.2.92-.5 1.46-.65zm2.04 9.43c.32-.11.48-.43.48-.82 0-.27-.08-.55-.22-.75-.14-.2-.32-.32-.54-.32a.9.9 0 00-.48.16l-.03-.06c.09.26.18.52.28.76.15.37.31.71.51 1.03zm-20.43-5.09a3.3 3.3 0 01-2.44 1.35 2 2 0 01-.42-.04c-.5.19-.8.8-.8 1.42 0 .61.28 1.16.85 1.29.11.02.21.04.31.04.54 0 1.01-.35 1.46-.82.25-.26.48-.54.73-.81.18-.19.5-.35.58-.61.09-.29-.11-.73-.15-1.02a8.17 8.17 0 01-.12-.8zm7.56-11.19c0-.83-.6-1.28-1.23-1.29-.49 0-.98.27-1.23.93a4.28 4.28 0 00.25 3.07c.66-.2 1.35-.33 2.04-.38a3.94 3.94 0 01.16-2.14l.01-.19zm13.88 17.42h.05c.08 0 .11-.03.16-.09a.51.51 0 00.07-.27.65.65 0 00-.12-.39.6.6 0 00-.47-.19c-.16 0-.33.05-.46.12.21.32.47.59.77.82zm-22.26-2.77a2.9 2.9 0 01-1.27.86c-.34.39-.73 1.2-.72 1.79 0 .24.06.44.19.57.13.13.33.23.69.23l.15-.01c.71-.05 1.11-.79 1.42-1.33.38-.64.75-1.35 1.43-1.62-.26-.57-.48-1.16-.65-1.77-.41.32-.8.82-1.24 1.28zm4.37-14.61c-.41.09-.79.46-.93.86-.07.2-.11.43-.11.67 0 .4.09.8.23 1.17.11.3.22.86.62.81.16-.02 1.61-.88 1.68-.75a4.57 4.57 0 01-.44-2.02l.01-.17c-.34-.41-.44-.71-1.06-.57zm18.85 1.68c0-.89-.36-1.82-.96-2.26-.43-.21-.87-.41-1.31-.6.4.54.68 1.14.68 1.82 0 .4-.1.82-.32 1.26-.12.23-.41.54-.77.82-.31.24-.67.44-1.03.5.53.39 1.19.65 1.81.65.44 0 .87-.13 1.24-.43.43-.37.66-1.04.66-1.76zm.55 16.14c0-.09-.04-.16-.13-.22a.71.71 0 00-.38-.1.85.85 0 00-.53.18c.29.16.61.29.96.38a.72.72 0 00.08-.24zM25.96 59.43H0V60h110.94v-.57zM1.29 55.22a1.38 1.38 0 000-2.76c-.59 0-1.1.38-1.29.9v.95c.19.53.7.91 1.29.91zM109.4 6c0 1.1.63 2.04 1.54 2.51v-.7a2.2 2.2 0 010-3.48v-.84A2.85 2.85 0 00109.4 6zM25.94 48.1h85v-.57H0v.57zm76.71-4.45a3.9 3.9 0 00.65-2.26c0-1.39-.56-2.88-1.31-3.86-.73-.32-1.42-.66-2.05-1.04a9.2 9.2 0 011.16 4.27c0 .85-.16 1.64-.59 2.24-.38.54-.97.9-1.79.96.6.38 1.33.61 2.02.61.75 0 1.45-.26 1.91-.92zm8.29 1.24c-.19.32-.45.6-.81.83l.81.18v-1.01zm-.63-4.51c.27.44.47.92.63 1.37V39.8a3.38 3.38 0 00-.98-.42l-.54-.03c.35.26.65.63.89 1.03zM25.96 12.47h84.98v-.57H0v.57h25.94zM25.94.57h85V0H0v.57zm34.69 17.35c-.37 0-.77.14-1.13.47-.34.31-.6.73-.77 1.19l-.01.11h-.02a3.72 3.72 0 00-.12 1.94l.42-.01c.68 0 1.36.07 2.03.21 0-.77.26-1.55.73-2.17.07-.2.11-.39.11-.56 0-.72-.56-1.18-1.24-1.18zM25.96 58.76h84.98v-.57H0v.57h25.94zm-.02-57.52H0v.57h110.94v-.57H25.96z" class="st1"/><path d="M4.13 54A2.84 2.84 0 000 51.48v.7a2.2 2.2 0 110 3.49v.84A2.82 2.82 0 004.13 54zm106.81 2.51v-.84a2.2 2.2 0 010-3.48v-.71a2.82 2.82 0 000 5.03zM62.47 43.07c1.7.58 3.45.9 5.14.9.6 0 1.19-.04 1.78-.12 2.37-.33 4.92-1.06 6.83-2.53h.01c.15-.12.31-.24.45-.37a8.88 8.88 0 001.46-1.7l-.01-.02h.02c.56-.84 1.04-1.8 1.36-2.77h.01c.24-.75.38-1.5.37-2.21 0-.34-.03-.66-.09-.97-.3-1.49-1.71-2.72-3.16-2.72-.46 0-.93.12-1.38.4-.86.52-1.84 1.72-1.83 2.64.01.52.26.96 1.07 1.26.26.09.49.13.69.13.87 0 1.34-.75 1.35-1.67 0-.25-.04-.5-.11-.75l-.07-.25.25.04c1.15.18 1.62 1.24 1.61 2.23 0 .54-.13 1.08-.37 1.49a3.6 3.6 0 01-3.18 1.79 4.25 4.25 0 01-2.51-.83h-.02v-.01a5.36 5.36 0 01-1.67-2.32c-.61-1.46-.9-3.16-1.41-4.52-1.16-3.14-3.16-6.11-6.29-7.47a9.48 9.48 0 00-3.78-.78c-1.99 0-3.97.62-5.55 1.87-1.79 1.42-2.35 3.19-2.36 5.21 0 .72.07 1.46.19 2.23.85 5.42 5.75 9.97 11.2 11.82zm-7.22-6.56a10.27 10.27 0 01-2.52-6.5c0-1.04.2-2.08.65-3.04 1.08-2.31 3.72-3.33 6.18-3.33.54 0 1.07.05 1.57.14 3.17.59 4.83 3.11 6.11 5.92 1.29 2.82 2.22 5.97 3.89 7.93.72.87 2.61 2.23 4.02 2.22.39 0 .78-.09 1.08-.36-.23.21-.41.47-.64.67-.25.21-.57.34-.87.48a14.8 14.8 0 01-6.96 1.74c-2.66 0-5.25-.76-7.8-2.14a17.37 17.37 0 01-4.71-3.73zm11.09 9.13c.27.41.68.69 1.19.69.61 0 1.13-.41 1.14-.98 0-.3-.14-.67-.54-1.08l-.51.01c-.63 0-1.27-.04-1.91-.13.2.04.49 1.28.63 1.49zm32.72-9.7s-.01 0 0 0c.03-.23.05-.46.05-.69 0-1.24-.48-2.37-1.49-2.82a4.56 4.56 0 01-1.78-.88 5.52 5.52 0 01-1.35-1.4c-.08.17-.17.33-.27.49-.25.36-.57.67-.93.82.11.45.59.92.66 1.6l.01.27-.02.37c.21.74.77 1.18 1.43 1.59.68.42 1.44.81 1.89 1.51.18.29.27.56.27.8 0 .38-.21.67-.5.85-.29.18-.65.27-1.01.27-.34 0-.67-.08-.94-.25.23.38.66.62 1.2.63l.3-.03c1.37-.22 2.26-1.63 2.48-3.13zm-35.53 9.88c.27.48.61.81 1.06.8.14 0 .3-.03.47-.11.52-.23.72-.63.73-1.11a2 2 0 00-.55-1.31 17.7 17.7 0 01-2.54-.61c.15.32.27.69.34 1.07.11.41.27.89.49 1.27z" class="st1"/><path d="M76.25 37.17c-.16-.1-.45-.18-.76-.17-.31 0-.64.07-.88.19-.18.09-.3.21-.34.34.14.02.27.02.41.02a3.67 3.67 0 001.57-.38zm-2.5 7.77c.4 0 .78-.1.95-.25.37-.32.43-.66.22-1.09-.08-.16-.58-.79-.81-.69-.73.32-1.5.57-2.27.78.24.17.39.39.45.64.14.36.82.62 1.46.61zm-4.76-6.35c-.46-.52-.94-.96-1.58-1.08l-.49-.09.45-.22c.62-.31.81-.68.85-1.29-.2.07-.39.09-.59.09-.67 0-1.3-.28-1.85-.28-.42.01-.77.13-1.15.65l-.13.19-.13-.18a28.5 28.5 0 01-1.26-1.84l-.02-.01c.08.21.14.43.15.65.33.52.73 1.02 1.08 1.54l.09.14-.14.09c-.31.21-.4.42-.4.68-.01.43.32.99.68 1.5.32.48.65.9.72 1.29.66-.51.89-1.18.9-2.11v-.63l.3.55c.75 1.37 2.15 1.56 3.61 1.56-.4-.36-.74-.8-1.09-1.2zm1.37 7.66c.42 0 .83-.21 1.14-.53.31-.32.5-.73.5-1.08a.71.71 0 00-.03-.21l-.01-.02c-.06-.25-.24-.45-.6-.59v-.01a23.23 23.23 0 01-2.82.45c.29.35.43.7.44 1.03.44.71.93.95 1.38.96zm6.07-2.56c.81 0 1.52-.26 1.73-.98.04-.13.06-.25.06-.36 0-.3-.13-.51-.33-.66a1.4 1.4 0 00-.81-.23c-.23 0-.47.05-.69.14-.59.45-1.23.82-1.9 1.14.34.19.63.46.78.77.34.11.76.18 1.16.18zm12.65-5.92h-.05a6.79 6.79 0 01-3.06 4.26h.39c.27 0 .53-.01.67-.05a3.9 3.9 0 001.46-.79c.88-.79 1.31-2.28 1.58-3.49a8.1 8.1 0 01-.99.07zm2.21 4.6a4.37 4.37 0 002.92 2.21c.75.21 1.57.33 2.39.51a7.3 7.3 0 01-1.71-2.14c-.83-1.36-1.45-2.04-2.99-2.52a2.61 2.61 0 01-1.75-1.73l-.08.28c.1.56.69.99.9 1.7.16.67 0 1.12.32 1.69zm1.97-7.5c.16-.36.29-.76.34-1.15l-.01-.03h.01l.02-.36-.01-.24c-.04-.53-.49-.97-.65-1.54a1.58 1.58 0 01-1.55-.73c-.24.69-.68 1.2-1.23 1.53a4.5 4.5 0 00-.54 1.63c-.14.69-.28 1.42-.63 1.94-.23.35-.59.59-1.07.62h-.08a.91.91 0 01-.67-.26.83.83 0 01-.23-.59c0-.26.11-.53.31-.75-.46.01-.77.4-.77.88 0 .16.03.32.11.48.4.84 1.42 1.14 2.46 1.14.55 0 1.1-.09 1.52-.21a4.34 4.34 0 002.67-2.36zm-14 4.61c.51 0 .71-.36.72-.77 0-.2-.06-.39-.16-.53a.5.5 0 00-.41-.22.88.88 0 00-.16.02c-.2.41-.43.81-.67 1.19.23.02.42.13.57.28.03.03.08.03.11.03zm-.16.81v-.03c-.01-.46-.25-.75-.64-.75l-.11.01a9.97 9.97 0 01-1.41 1.63l.13-.01c.21 0 .42.03.62.1v-.01c.15.07.3.1.43.1.53 0 .97-.45.98-1.04zm-4.16-12.17c-.17.11-.25.18-.25.29 0 .03 0 .06.02.11.08.25.26.35.48.36a.7.7 0 00.43-.16.85.85 0 00.33-.66c0-.3-.16-.61-.43-.86-.26-.24-.61-.4-.94-.4a.93.93 0 00-.62.22c-.48.38-.67.86-.67 1.38a2.9 2.9 0 001.57 2.42l.15-.1a2.04 2.04 0 01-.97-.75 2.93 2.93 0 01-.57-1.41v-.1c.01-.5.25-1.13.79-1.34.1-.04.2-.05.32-.05.15 0 .32.03.46.1s.28.21.3.4v.04c0 .14-.07.26-.15.33-.08.07-.17.13-.25.18zM20.8 39.06c.41-.25.56-.62.56-1.04 0-.44-.18-.92-.45-1.3a4.61 4.61 0 01-1.15-.86c-.6.58-1.26 1.09-1.99 1.51v.02c0 .43.31.9.79 1.25.45.33 1.01.58 1.59.58.25 0 .47-.05.65-.16zm-3.54 2.37c.11.02.21.02.31.02.93-.01 1.37-.6 1.38-1.32 0-.36-.12-.75-.37-1.09a2.55 2.55 0 01-.21-.14 2.12 2.12 0 01-.91-1.35 8.88 8.88 0 01-2.38.86v.14c0 1.33.86 2.71 2.18 2.88zm7.27-8.38c0-.29-.08-.57-.21-.77-.14-.2-.31-.31-.54-.31l-.16.02v-.02c-.41.03-.81.02-1.12.08-.25.51-.54 1.01-.84 1.5.54.3 1.27.73 1.86.72.1 0 .2-.01.3-.04.46-.14.7-.65.71-1.18zm-1.95 3.73c.49-.07.98-.47 1.08-.96.02-.08.02-.16.02-.24 0-.51-.31-1.01-.81-1.08v-.02c-.52-.16-1.02-.46-1.4-.67A13.7 13.7 0 0120 35.64c.27.28.64.56 1.04.78l.04-.03.06.08c.4.2.83.33 1.22.33l.22-.02zm-9.53 1.85l-.67-.02c-.07.26-.1.54-.1.82 0 .86.27 1.72.9 2.34.35.34.75.49 1.12.49.65-.01 1.19-.44 1.2-1.14 0-.15-.03-.32-.09-.51a3.59 3.59 0 01-.65-2.05v-.08a9.8 9.8 0 01-1.71.15zm16.23-14.5c.27 0 .52-.06.67-.14a3.36 3.36 0 00-1.6-.4l-.29.01c.04.13.16.25.35.35.23.11.56.18.87.18zM7.25 36.58a6.35 6.35 0 01-.82-.82 10.29 10.29 0 01-5.91 1.81l-.51-.02v1.52c2.83-.02 5.5-.71 7.47-2.31l-.23-.18zm18.99-11.57a.57.57 0 00.12-.39c0-.1-.02-.2-.06-.25-.04-.05-.07-.07-.15-.08h-.04c-.29.21-.55.47-.78.75.13.08.3.13.46.13.19.01.35-.04.45-.16zM8.02 37.15l.06.06a3.16 3.16 0 00-.77 2.04c0 .21.03.41.09.58.1.35.66.91 1.01.95l.21.02c.22-.01.25-.05.35-.17.08-.1.17-.28.33-.47v-.03c0-.73.17-1.51.48-2.08a8.35 8.35 0 01-1.76-.9zM27.59 23.9a.5.5 0 00-.07-.22c-.35.08-.66.19-.94.33a.8.8 0 00.53.19c.14 0 .28-.04.36-.1.08-.05.12-.11.12-.2zm-2.04 2.24c0-.36-.14-.65-.44-.76a6.9 6.9 0 00-.82 1.69l.03-.04a.9.9 0 00.48.17c.21 0 .39-.12.53-.32s.22-.48.22-.74zm37.37-3.72c.3.13.59.28.88.44.08-.53.45-.99.93-1.34l.26-.17c.28-.36.42-.78.42-1.16-.01-.74-.46-1.35-1.44-1.35l-.26.01c-1.39.14-2.33 1.6-2.33 2.99v.06c.52.13 1.04.3 1.54.52zm-38.03 8.27c.01-.41-.29-.87-.67-1.12a1.49 1.49 0 01-.73-.01 12.51 12.51 0 01-.84 2.13c.32-.04.67-.03 1-.05.45-.03.82-.13 1.04-.41a.8.8 0 00.2-.54zm-10.53-3.58v.12c.44.01.83.18 1.14.45.28-.23.61-.56.89-.93l-.02-.02.16-.18c.22-.33.38-.67.42-.99l-.05-.03.05-.08v-.03a.98.98 0 00-.2-.6c-.26-.36-.61-.5-.97-.5-.37 0-.75.16-1.04.42a1.4 1.4 0 00-.47 1.04v.1h-.02c.08.43.11.87.11 1.23zm3.83 2.07l-.13.01v-.01c-.25.03-.51.04-.76.04-.43 0-.84-.03-1.15-.05 0 .38-.11.78-.34 1.17.48.31.9.72 1.2 1.2l.02-.02c.24.27.51.38.8.38.48 0 .96-.33 1.11-.81.06-.18.1-.43.1-.67 0-.32-.06-.64-.2-.87-.15-.23-.34-.37-.65-.37zm-4.42.87l-.33.02a.75.75 0 01-.07.12h.01c.4 1.32.94 2.13 2.25 2.6.23.08.66.21 1.04.41.2.11.4.23.54.4l.01-.27c0-.89-.41-1.71-1.05-2.31a3.6 3.6 0 00-2.4-.97zm3.84-3.64c-.29 0-.57.1-.83.35-.32.47-.73.88-1.06 1.16.2.26.34.57.4.92.32.02.75.05 1.18.05.49 0 .99-.04 1.34-.18.36-.14.54-.32.55-.67 0-.16-.05-.37-.16-.62-.29-.61-.86-1.02-1.42-1.01zm.78-1.99l.14-.18.12.19c.36.54.72.66 1.14.66.5 0 1.09-.22 1.69-.22.21 0 .42.03.63.11-.03-.6-.2-.95-.79-1.27l-.45-.23.5-.08c.63-.09 1.1-.51 1.56-1 .35-.38.69-.8 1.1-1.13h-.34c-1.3 0-2.49.22-3.19 1.42l-.31.52v-.72c-.01-.85-.21-1.48-.81-1.97-.08.38-.42.78-.74 1.23-.36.5-.7 1.04-.7 1.46 0 .24.09.44.37.65l.13.09-.1.13c-.36.5-.76.97-1.09 1.47a2.2 2.2 0 01-.16.61l.01-.01c.41-.57.85-1.18 1.29-1.73zm3.31-9.58c-.32 0-.62.12-.86.33-.2.17-.41.42-.51.67l-.04.12c-.05.17-.14.91-.37.93a14.48 14.48 0 012.35-.05c.4-.4.55-.76.55-1.05-.01-.54-.52-.94-1.12-.95zm-2.36-.24a1.2 1.2 0 00-.48-.12c-.42 0-.75.31-1.03.76a5.8 5.8 0 00-.5 1.19c-.07.37-.2.73-.35 1.03.82-.24 1.65-.41 2.47-.52.35-.35.57-.85.57-1.3-.02-.44-.2-.82-.68-1.04zM1.64 27.06c0 .59.27 1.16.73 1.35.12-.02.23-.03.35-.03.96.01 1.86.63 2.39 1.37l.12-.75c.06-.35.15-.7.24-1.04l-.01.02c-.47-.36-.87-.93-1.3-1.4-.43-.47-.87-.82-1.41-.82l-.27.03c-.55.11-.84.65-.84 1.27zm7.07 4.06c.14 0 .33-.07.58-.27l.12-.1.1.11c.25.26.36.6.36.94-.01.94-.73 1.98-1.42 2.47.14.17.29.32.46.47l.07-.07.25-.28a3.6 3.6 0 012.6-1.33c.37 0 .75.1 1.04.36l.13.12-.14.12c-.25.21-.52.7-.51 1.07.01.27.09.45.43.55.06.02.12.02.18.02.24 0 .43-.15.58-.41.14-.26.22-.61.22-.93 0-.28-.06-.53-.16-.66-.16-.26-1.01-.59-1.67-.58-.4.01-.72.21-1.1.26.29-.68.97-1.27 1.48-1.79l.37-.52.23-.35-.24.05h-.01a.8.8 0 00-.18.04c-.17.05-.31.12-.58.4-.61.64-1.2 1.28-1.83 1.89.08-.49.18-1.01.18-1.51 0-.41-.07-.8-.25-1.07s-.44-.45-.92-.46h-.03c-.55 0-.78.42-.79.84 0 .17.05.34.13.45.09.11.18.17.32.17zm2.75-1.47c.25.26.55.41 1 .41l.15-.01.53-.12a.92.92 0 00.07-.38c.01-.73-.69-1.75-1.17-2.05a3.65 3.65 0 00-1.28-.6c-.1-.02-.26-.03-.42-.03h-.46c.29.32.49.73.68 1.13.28.63.52 1.26.9 1.65zm16.63 4.36c.32 0 .66-.15.91-.38s.42-.53.41-.82a.85.85 0 00-.3-.63.65.65 0 00-.43-.17c-.2 0-.38.1-.46.33-.02.05-.02.08-.02.11 0 .08.04.13.13.21.09.07.22.14.34.26.07.07.14.19.14.32v.05a.5.5 0 01-.29.38.97.97 0 01-.44.09.93.93 0 01-.34-.06c-.51-.22-.73-.81-.73-1.29l.01-.14c.05-.45.26-.95.59-1.36.25-.32.58-.59.96-.7a1.21 1.21 0 01-.14-.1 2.8 2.8 0 00-1.58 2.36c0 .48.18.93.61 1.3.2.17.41.24.63.24z" class="st1"/><path d="M5.56 29.06c-.16.83-.26 1.65-.26 2.43 0 1.84.53 3.48 2.15 4.84a8.7 8.7 0 005.6 1.97c1.17 0 2.34-.22 3.43-.66 3.08-1.24 5.1-4.06 6.31-7.08.53-1.31.86-2.95 1.49-4.35A5.3 5.3 0 0125.97 24v-.01h.02a4.1 4.1 0 012.35-.74c1.29 0 2.51.65 3.15 1.83.21.39.32.88.32 1.37 0 .5-.11 1.01-.38 1.42-.26.41-.68.72-1.26.8l-.25.03.08-.24c.08-.26.13-.53.13-.79-.01-.88-.45-1.59-1.3-1.59-.19 0-.4.03-.63.11-.82.28-1.07.71-1.07 1.23-.01.89.89 2.06 1.7 2.58.45.29.93.42 1.4.42 1.38.01 2.74-1.14 3.07-2.55.08-.35.12-.71.12-1.09 0-.64-.11-1.32-.31-2-.28-.96-.72-1.91-1.24-2.74h-.02v-.02a8.5 8.5 0 00-1.81-2.06h-.01c-1.82-1.48-4.27-2.26-6.57-2.65-.68-.12-1.39-.17-2.1-.17-1.53 0-3.1.26-4.64.73-5.33 1.66-10.22 5.94-11.16 11.19zm8.66-8.51a16.1 16.1 0 017.26-1.87c1.67 0 3.36.31 5.08.96 1.18.45 2.22 1.04 3.31 1.6l-.15.29a1.79 1.79 0 00-.81-.18c-1.37-.01-3.19 1.24-3.9 2.05-1.67 1.86-2.67 4.89-4 7.6-1.32 2.7-3.01 5.09-6.1 5.59-.42.07-.85.1-1.29.1-2.47 0-5.15-1.06-6.16-3.41a6.94 6.94 0 01-.55-2.76 9.97 9.97 0 012.63-6.47 16.77 16.77 0 014.68-3.5z" class="st1"/><path d="M13.54 29.55l-.01.19.24-.01c.62 0 1.22.16 1.75.44.21-.35.3-.7.3-1.02 0-.89-.68-1.6-1.49-1.6-.4 0-.84.17-1.27.59.27.43.47.94.48 1.41zm-1.71-2.57l.39.24c.21.14.44.37.65.65.37-.35.77-.55 1.16-.62v-.14a6 6 0 00-.29-1.93c-.24-.61-.59-1.02-1.19-1.02h-.06c-.45.02-.72.17-.89.39-.18.22-.26.53-.26.87 0 .55.22 1.17.49 1.56zm12.83.55l.02-.02a1.18 1.18 0 01-.48-.18c-.22.63-.41 1.29-.61 1.93l.27.03c.26 0 .66-.15.87-.32a.93.93 0 00.36-.7c-.01-.24-.11-.49-.43-.74zm68.31.45c-.47 0-.96.21-1.31.63-.21.25-.3.58-.3.93a2 2 0 00.38 1.17 1.21 1.21 0 001.33.47c.29-.08.63-.37.88-.73s.41-.8.41-1.12v-.08c-.09-.85-.7-1.26-1.39-1.27z" class="st1"/><path d="M96.73 21.81a5.2 5.2 0 00-2.51.72c-.84.48-1.25.96-1.47 1.55a6.35 6.35 0 00-.26 2.15c.07.48.1.97.15 1.47l.33-.03c.66-.01 1.31.35 1.58 1.03.99-.15 1.37-.76 1.62-1.59.25-.84.32-1.85.69-2.63a1.79 1.79 0 011.67-1.08c.39 0 .7.15.88.38.19.23.27.53.27.81 0 .27-.07.54-.2.76l.1-.12c.13-.19.2-.47.2-.77v-.12c-.05-.89-.79-1.64-1.55-2.12a2.65 2.65 0 00-1.5-.41zm-5.52 6.92c.05-.11.12-.22.2-.33.25-.31.57-.52.91-.64-.05-.52-.08-1.03-.15-1.51v-.02a7.42 7.42 0 00-.2-.96 3.35 3.35 0 00-1.51-1.96c-.29-.18-.75-.42-1.14-.69-.38-.28-.74-.59-.75-1.02 0-.33.24-.63.7-.91.28-.17.59-.24.9-.24.35 0 .69.09.96.27.17.11.31.27.39.45.02-.08.02-.15.02-.22a.8.8 0 00-.38-.69 1.72 1.72 0 00-.98-.27c-.68 0-1.46.3-1.99.99a4.3 4.3 0 00-.85 2.65c0 2.29 1.54 4.64 3.87 5.1zM89.4 15.06a2.5 2.5 0 00-.77.6c-.2.23-.43.47-.48.74a.6.6 0 00.1.47c.28.46.92.54 1.41.55a8.3 8.3 0 003.79-1.22 5.03 5.03 0 011.9-.85c-1.24-.33-2.69-.7-3.98-.7-.67 0-1.37.1-1.97.41zm19.93 1.69c0 .23.02.47.08.72l-.04.01.13.22c.17-.69.76-1.24 1.44-1.54V14a3.17 3.17 0 00-1.61 2.75z" class="st1"/><path d="M102.8 31.56l-.03-.37c-.1-.75-.86-1.77-1.85-2.57-.99-.81-2.22-1.41-3.21-1.41-.73.01-1.32.29-1.71 1.07l-.04-.02c-.29.37-.72.64-1.32.74.01.07.03.14.03.22l-.16.02.16-.01v.11c0 .13-.02.26-.05.4.19.45.75 1.07 1.4 1.56.37.28.77.52 1.16.67v-.01c.18.04.35.09.51.16l.29.03.24-.02c.44-.09.84-.4 1.26-.72a2.9 2.9 0 011.43-.69l.2-.01c.43 0 .76.15.97.4.21.25.3.58.3.91 0 .42-.15.88-.42 1.24a2 2 0 00.84-1.7zm-22.58 2.85a7.85 7.85 0 01-.31 1.89l.09-.01.15.02c.19-.27.28-.61.28-.96 0-.32-.08-.65-.21-.94zm-3.5-13.09a4.44 4.44 0 00-.27-.19l-.13-.09c.61 1.91.05 4.03.96 5.61.76 1.38 2.34 2.31 2.81 4.01.41-.78.58-1.58.58-2.37 0-2.66-1.99-5.31-3.95-6.97zm3.27 15.29a.52.52 0 00-.21.05c-.11.33-.24.66-.38.98.14 0 .27.03.39.1v-.02l.09.01c.15 0 .24-.06.32-.17a.75.75 0 00.12-.43.71.71 0 00-.1-.38.27.27 0 00-.23-.14zm-55.54-21.6c-.43 0-.89.22-1.32.89-.03.31-.17.65-.46.98a22.38 22.38 0 012.73.51v-.01c.35-.13.53-.32.6-.55l.01-.02a.85.85 0 00.03-.23c0-.34-.18-.75-.48-1.06-.31-.3-.7-.51-1.11-.51zm58.89 18.35l-.1.02-.06-.09c-.25-.35-.48-.46-.65-.46-.17 0-.34.11-.48.32-.14.2-.22.49-.22.79 0 .44.18.87.63 1.13.35.2.69.29 1 .29.67 0 1.27-.4 1.7-.99.43-.59.7-1.37.69-2.06l-.01-.13a4.17 4.17 0 01-.92-.73v.07c-.01.86-.84 1.67-1.58 1.84zm2.82-1.39v.02a4.38 4.38 0 002.1.55c.61 0 1.2-.14 1.69-.43l.01-.02.01.01c.58-.35 1.03-.9 1.22-1.68h.01a2.31 2.31 0 01-.11-1.36 4.8 4.8 0 01-2.28-1.21c-.54 1-1.62 1.93-2.75 1.94a2 2 0 01-1.51-.72 1.93 1.93 0 01-.54-1.3c0-.3.08-.59.23-.85a1.7 1.7 0 00-.32 1.08c0 .34.06.75.18 1.21.34 1.3.95 2.2 2.03 2.78l.03-.02zM4.41 26.36c.41.45.78.96 1.16 1.29.18-.58.41-1.14.68-1.69-.65-.28-.99-.99-1.34-1.62-.28-.51-.69-1.27-1.34-1.33L3.38 23c-.34 0-.53.09-.65.22s-.18.32-.18.56c-.01.57.34 1.34.65 1.71.48.15.87.5 1.21.87zM110.94 6.6v-.88a1.27 1.27 0 000 .88zM11.46 18.37l-.04-.14c-.2-.48-.52-.85-1.01-.98-.1-.03-.2-.04-.3-.04-.35 0-.65.17-.88.43-.23.25-.37.6-.37.94 0 .19.04.37.13.54.1.13.18.28.26.43.3.58.47 1.23.61 1.79.58-.5 1.19-.97 1.83-1.41v-.12c0-.46-.06-.99-.23-1.45v.01zm-2.62 1.14a1.72 1.72 0 00-1.52-.97c-.34 0-.53.13-.67.35-.14.22-.2.54-.2.89 0 .42.09.88.21 1.21a6.52 6.52 0 011.38 2.23c.49-.59 1.02-1.14 1.59-1.67l-.04.01c-.16-.58-.33-1.28-.63-1.86-.04-.07-.07-.13-.12-.19zm2.12 22.54c.61-.01 1.19-.44 1.2-1.26v-.13a3.96 3.96 0 01-.1-2.08 9.25 9.25 0 01-1.96-.42 4.21 4.21 0 00-.33 2.96c.22.66.71.93 1.19.93zM2.25 31.22c.16-.03.32-.04.48-.04.8 0 1.68.26 2.25.55v-.24c0-.42.16-.98.01-1.37-.14-.37-.51-.65-.81-.88a2.63 2.63 0 00-1.3-.57c-.69-.07-1.44.45-1.44 1.21 0 .54.3 1.11.81 1.34z" class="st1"/><path d="M1.45 32.97c.3 1.33 1.86 1.92 3.26 1.92.37 0 .72-.04 1.03-.12-.17.04-.53-1.38-.56-1.53-.07-.39-.07-.93-.35-1.24-.43-.47-1.5-.5-2.09-.5-.16 0-.32.01-.46.04l-.01.03-.04-.02c-.18.04-.33.1-.46.18-.23.16-.37.38-.38.77 0 .14.02.3.06.47zm3.32-12.23a1.1 1.1 0 00-.62 1.04c0 .44.18.95.38 1.4.26.28.47.65.66 1 .35.65.69 1.28 1.2 1.48.39-.75.86-1.47 1.4-2.15.07-.09-.29-.76-.34-.85-.17-.35-.4-.66-.61-.98-.35-.53-.89-1.07-1.58-1.07-.16.01-.32.04-.49.13zm98.11-5.11c-.44 0-.88.07-1.31.21a5.13 5.13 0 00-3.01 3.63c.45-.56 1.02-.8 1.61-.8 1.51.01 3.17 1.4 4.18 2.17l.34.26-.43.03c-.68.05-1.59.41-1.8 1.01.99.22 1.98.65 2.94.64.1 0 .21 0 .31-.02.17-.01 1.4-.36 2-.69.19-.1.31-.21.32-.24h.04l.28-.08c.25.81.43 1.67.43 2.54 0 .47-.05.95-.18 1.42a4.23 4.23 0 01-.71 1.5c-.12.15-.35.34-.59.55-.23.19-.46.42-.48.49l-.33-.03c.02-.15.02-.29.02-.44 0-.88-.3-1.8-.96-2.35-.38-.32-.8-.48-1.31-.54h-.05c-.19 0-.49.08-.78.15a3 3 0 011.48 2.64v.01c0 .57-.2 1.27-.58 1.85-.33.51-.8.93-1.4 1.03.08.19.14.38.16.56l.03.4c.33.08.62.12.88.12 1.06 0 1.76-.59 3.01-1.26a6.03 6.03 0 012.37-.55c.39 0 .75.06 1.04.23l.17.13a2.7 2.7 0 00-.44-1.35c-.2-.3-1.03-.83-1.56-.82-.19 0-.33.05-.43.17l-.25-.21a5.7 5.7 0 001.37-3.86l-.03-.68a5.22 5.22 0 00-.52-1.91c.66-.45.92-1.2.92-1.98 0-.87-.34-1.77-.9-2.39-.27-.3-.84-.64-1.35-1.05a3.14 3.14 0 01-.81-.9c-.05.28-.08.57-.08.86 0 .26.03.51.09.76l.14.53-.4-.37a5.32 5.32 0 00-3.44-1.37zm3.93 3.01c.4.26.77.59 1.06.96.31.39.68 1.32.61 1.81a5.05 5.05 0 00-4.77-3.48c.19-.01.37-.01.56 0 .9.02 1.74.2 2.54.71zm-33.67-1.95c.47.1.96.17 1.44.19l.37.01c.8 0 1.56-.15 2.39-.33 1.56-.36 2.77-1.22 3.07-2.71a1.8 1.8 0 01-.62.48c-.46.23-1 .29-1.53.3a8.8 8.8 0 01-1.32-.11c-.18-.02-.35-.04-.53-.04-1.84-.01-3.47 1.3-5.42 1.4l.07.03c.45.19.89.42 1.35.58.24.09.48.15.73.2zm34.94 5.16l-.03.01zM1.63 13.52c-.58 0-1.14.17-1.63.47v2.16c.36-.16.74-.25 1.1-.25.17 0 .34.02.5.06.84.22 1.28.94 1.28 1.63 0 .3-.08.6-.25.84.33-.15.63-.35.89-.58.58-.52.95-1.22.95-1.92 0-.56-.23-1.11-.79-1.62a3.15 3.15 0 00-2.05-.79zM.85 45.86c.73-.3 1.13-1.02 1.27-1.8.03-.17.05-.35.05-.53a4.65 4.65 0 00-2.16-3.72v1.98c.1.29.18.57.24.81.08.33.11.64.11.94 0 .49-.12.94-.35 1.33v1.03a1.32 1.32 0 00.84-.04zM47.1 18.57c.17-.34.58-1.18 1.1-1.94.38-.55.8-1.07 1.27-1.32a4.96 4.96 0 00-.84-.08c-1.27 0-2.34.56-3.05 1.51a4.7 4.7 0 00-.87 2.79v.02c0 .18.07.64.07 1.08 0 .24-.02.48-.08.69 1.18-.46 1.8-1.55 2.4-2.75z" class="st1"/></svg>