<svg xmlns="http://www.w3.org/2000/svg" viewBox="0 0 860 180"><defs/><path fill="#ccad7b" d="M666.43 79.34c5.42-11.5-1.85-23.76-10.9-30.49-7.51-5.58-19.26-7.31-28.36-6.26-7.06.81-24.79 11.98-15.36 19.06 3.53 1.4 6.47 1.54 11.25-1.12.42 8.21-8.79 10.7-11.56 10.7-7.58 0-11.84-5.52-11.84-5.52-9.02 8.38-24.7 11.62-35.22 1.09 19.87 4.04 11.31-8.12 21.2-11.08-3.4-.28-7.34-2.7-10.21-5.2-2.03-1.77-6.02-8.41-3.94-15.75 2.24 9.75 15.32 12.55 24.42 8.08 9.93-3.64 20.04-8.65 30.85-8.72 10.24-.07 23.31 3.13 32.15 9.91 11.16 8.57 16.77 21.86 13.55 35.71-2.49 10.72-11.94 22.89-11.94 22.89l12.93-5.2a193.84 193.84 0 0129.12-9.33c8.98-2.04 18.15-3.23 27.17-3.03 14.68.32 28.63 4.93 39.73 14.95 3.26-4.29 6.98-4.25 12.08-3.72 13.98 1.44 17.26 2.37 15.78-4.38 7.06 5.5-.85 13.57-5.89 16.46-3.83 2.2-9.42 2.81-13.66 1.84a41.68 41.68 0 015.81 13.47c1.58 6.75-1.1 13.7 8.48 13.97a6.53 6.53 0 006.18-4.12c.8-2.16-.21-6.01-2.83-6.49a4.16 4.16 0 11-7.64 2.28c0-3.38 3.05-5.1 6.11-5.56 5.97-.24 9.76 5.35 8.52 10.91-.91 4.1-4.73 7.05-9.8 7.09-3.1.02-5.9-.81-6.64-1.27 5.48 11.21 10.18 25.56 23.11 30 11.22 3.85 18.74-3.25 20.3-10.44 1.14-5.27-.69-9.59-3.79-11.96-4.08-3.12-10.37-2.9-13.36 2.05-1.95 3.23-.66 9.09 3.87 8.61-1.71-2.44.17-5.39 2.91-5.39 3.54 0 4.16 3.56 3.1 6.12-1.03 2.47-3.49 3.38-6.79 3.14-6.98-.89-9.61-6.89-7.28-12.94 2.98-7.46 12.91-8.74 19.57-4.4 5.11 3.89 6.74 9.79 6.35 16.52 2.15 5.6 6.59 14.46 15.31 14.65 5.56.12 8.29-3.04 7.27-7.74a4.44 4.44 0 00-3.12-3.49 3.88 3.88 0 01-3.53 5.56 3.9 3.9 0 01-3.9-3.9c0-2.34 2.15-4.21 4.26-4.74 3.64-.92 8.08 1.43 9.26 5.49 2.06 7.07-2.56 12.64-11.04 12.27-11.42-.5-16.33-12.27-16.33-12.27s-7.47 11.42-23.66 7.47-25.01-28.86-25.01-28.86c-4.33 20.88-20.82 34.81-41.86 33.61-12.09-.69-18.93-5.81-25.09-15.42-1.78-2.78-3.75-5.61-6.63-7.99-2.89-2.39-7.73-5.36-11.64-3.77-3.57 1.45-4.44 6.28-1.15 9.25a3.96 3.96 0 01-.02-2.63c.2-2.32 3.28-3.1 5.12-2.39a3.96 3.96 0 012.56 3.68c0 3.16-1.94 5.7-5.14 6.1-3.33.42-7.53-1.12-9.08-4.89-2.18-5.28.09-11.12 6.47-13.33 5.85-2.03 12.9-.08 16.48 5.11.37-6.64 2-12.21 6.73-16.92 9.51-9.46 25.05-13.38 34.92-1.82 6.94 8.13 3.44 22.79-7.87 24.13-5.41.64-10.18-2.5-11.35-7.68a7.06 7.06 0 012.42-7.22c1.71-1.53 5.41-1.65 7.05-.07a4.38 4.38 0 01.32 6.16 4.9 4.9 0 01-4.53 1.33c.96 3.13 3.52 3.78 6.02 3.29 8.24-1.6 9.07-12.38 3.82-17.8-8.19-8.45-20.94-5.3-27.7 3.35a21.03 21.03 0 00-4.35 13.82c.11 3.07 1.15 5.7 2.24 8.14 3.73 8.33 12.18 12.75 21.02 13.19 17.85.89 31.27-11.64 36-28.5a44.27 44.27 0 001.59-13.52c-.34-9.69-3.76-19.33-10.04-26.74 1.23 10.46-7.26 19.78-16.95 20.24-2.24.1-5.74-1.63-5.47-4.6 2.38 2.35 5.86 1.97 7.28-.61 5.36-9.79-4.25-17.77 5.28-23.56-9.22-5.88-18.77-7.5-29.49-8.43 6.32 3.59 15.08 7.12 14.44 16.03-.23 3.2-2.24 6.7-6.03 9.26-3.01 2.03-7.83 2.12-9.95-.06-3.42-3.53-1.39-8.66 4.9-8.97-5.63 2.01-4.19 9.57 2.35 6.49a6.5 6.5 0 003.62-6.28c-.61-8.38-15.99-4.94-20.24-3.46-5.39 1.89-9.88 2.51-13.38 1.73-5.55-1.25-9.01-6.88-4.06-11.51-9.12 1.78-16.8 4.67-25.13 8.74 5.93 1.9 8.56 8.33 5.15 13.5-2.57 3.89-7.85 6.35-11.9 3.26-3.69-2.81-1.9-8.65 2.02-8.97a3.67 3.67 0 013.68 5.8c4.92-1.81 5.08-8.25-2.21-9.67-3.19-.62-7.12-.13-10.23.98-4.99 1.77-21.5 9.57-21.5 9.57 16.46.32 33.9 13.65 36.2 30.38 2.01 14.59-8.19 29.56-23.05 31.52-11.1 1.46-23.64-5.45-24.66-17.5-.9-10.66 7.42-20.56 18.61-19.98 6.94.36 13.65 6.01 11.97 13.47-1.09 4.84-7.06 7.16-11.52 6.05-2.08-.52-4.06-1.69-4.81-3.69-.99-2.68.4-5.56 3.65-5.7 2.51-.1 4.99 1.76 2.84 5.72 2.23.33 4.77-.55 5.71-2.71 2.03-4.64-4.07-8.74-7.94-9.24-8.97-1.16-16.15 7.98-14.89 16.36 1.48 9.87 11.99 15.19 21.15 13.44 12.38-2.37 21.22-14.35 19.23-26.95-2.31-14.64-17.8-27.08-32.34-27.55-7.03-.23-14.73.7-20.83 4.18 4.5 2.71 11.29 5.26 10.36 11.83-.29 2.03-1.51 3.9-3.83 5.24.62-2.22.73-3.59.3-4.43-.95-1.85-4.55-1.16-11.3-1.37-3.64-.11-9.16-2.14-8.41-6.9a144.54 144.54 0 01-32.92 5.31c5.23 1.91 13.51 7.21 18.02 13.39 4.61 6.33 4.37 14.49-1.94 19.25-3.55 2.68-8.71 3.64-12.72 1.83-7.27-3.29-4.16-13.12 4.22-11.51-3.71 1.53-5.94 6.03-1.51 8.08 2.04.94 4.83.06 6.85-1.55 3.96-3.15 2.79-6.96-1.17-9.65-7.38-5.03-18.91-4.75-27.38-5.95-8.69-1.23-12.73-10.33-4.74-15.15-13.62-3.16-25.16-8.73-34.63-17.55-16.06-14.97-26.18-38.34-19.47-60.08.58.65-8.84 6.15-19.65 4.99-8.48-.91-15.69-5.58-18.89-13.71-2.46-6.27-2.28-12.5-2.28-12.5-3-3.35-7.22-3.92-9.87-.04-3.49 5.13-4.85 15.5-16.1 15.13-.11 7.91-.9 14.53-3.64 22l-5.19-1.04A35.15 35.15 0 00429.02 57s-6.54.83-11.84-4.58c-4.9-5.63-8.97-9.9-15.69-3.33.61-10.64 10.23-11.44 13.09-11.35 9.14.31 14.64 5.41 14.64 5.41s-2.91-15.92-13.09-25.08c-9.19-8.27-22.3-14.14-34.03-13.29-11.73.84-21 6.39-26.32 16.77-3.48 6.78-2.94 14.45.32 20.98 5.54 11.1 19.74 16.1 30.54 9.16a15.43 15.43 0 007.16-12.94c.14-7.14-5.42-13.9-13.13-12.77-3.28.48-6.53 4.3-3.9 8.12l.32-.3a4.65 4.65 0 018.84 2.02c0 4.38-5.54 5.88-8.85 4.22-9.09-4.55-6.91-17.48 3.05-18.58 10.96-1.21 18.65 7.32 18.24 17.88-.26 6.65-3.54 13.28-9.08 16.47-11.05 6.38-22.94 4.07-30.92-2.63a42.77 42.77 0 012.3 9.38 51.6 51.6 0 01-.76 17.34c-2.82 13.29-10.47 25.74-20.39 34.99-9.47 8.82-21.01 14.39-34.63 17.55 8 4.83 3.96 13.92-4.74 15.15-8.47 1.2-19.99.92-27.38 5.95-3.96 2.69-5.13 6.5-1.17 9.65 2.02 1.6 4.81 2.49 6.85 1.55 4.43-2.05 2.21-6.55-1.51-8.08 8.38-1.6 11.49 8.23 4.22 11.51-4 1.81-9.17.85-12.72-1.83-6.32-4.76-6.55-12.92-1.94-19.25 4.5-6.19 12.78-11.48 18.02-13.39a144 144 0 01-32.92-5.31c.75 4.76-4.77 6.78-8.41 6.9-6.75.21-10.35-.48-11.3 1.37-.43.84-.31 2.21.3 4.43-2.32-1.34-3.54-3.21-3.83-5.24-.93-6.57 5.86-9.12 10.36-11.83-6.1-3.48-13.8-4.41-20.83-4.18-14.55.47-30.04 12.91-32.34 27.55-1.99 12.6 6.85 24.58 19.23 26.95 9.16 1.75 19.67-3.57 21.15-13.44 1.26-8.38-5.92-17.51-14.89-16.36-3.87.5-9.96 4.6-7.94 9.24.94 2.16 3.48 3.03 5.71 2.71-2.15-3.96.33-5.82 2.84-5.72 3.25.13 4.65 3.01 3.65 5.7-.74 2-2.72 3.17-4.81 3.69-4.46 1.11-10.43-1.21-11.52-6.05-1.68-7.46 5.03-13.1 11.97-13.47 11.19-.58 19.5 9.32 18.61 19.98-1.01 12.05-13.56 18.96-24.66 17.5-14.87-1.96-25.06-16.93-23.05-31.52 2.3-16.74 19.74-30.07 36.2-30.38 0 0-16.51-7.8-21.5-9.57-3.12-1.11-7.04-1.6-10.23-.98-7.29 1.42-7.13 7.86-2.21 9.67a3.67 3.67 0 013.68-5.8c3.91.32 5.7 6.16 2.01 8.97-4.05 3.09-9.33.64-11.9-3.26-3.41-5.17-.78-11.59 5.15-13.5-8.33-4.07-16.01-6.96-25.13-8.74 4.95 4.63 1.49 10.26-4.06 11.51-3.5.79-8 .16-13.38-1.73-4.25-1.49-19.63-4.92-20.24 3.46a6.51 6.51 0 003.62 6.28c6.54 3.08 7.98-4.48 2.35-6.49 6.3.3 8.33 5.44 4.9 8.97-2.12 2.18-6.94 2.1-9.95.06-3.79-2.56-5.8-6.06-6.03-9.26-.65-8.91 8.11-12.43 14.44-16.03-10.73.93-20.27 2.55-29.49 8.43 9.53 5.78-.08 13.77 5.28 23.56 1.41 2.58 4.89 2.96 7.28.61.26 2.97-3.24 4.71-5.47 4.6-9.7-.45-18.18-9.78-16.95-20.24-6.29 7.41-9.7 17.05-10.04 26.74-.16 4.57.36 9.15 1.59 13.52 4.73 16.85 18.16 29.39 36.01 28.5 8.84-.44 17.29-4.86 21.02-13.19 1.09-2.44 2.14-5.08 2.24-8.14a21.02 21.02 0 00-4.35-13.82c-6.76-8.66-19.52-11.8-27.7-3.35-5.25 5.42-4.41 16.2 3.82 17.8 2.5.49 5.06-.16 6.02-3.29a4.9 4.9 0 01-4.53-1.33 4.38 4.38 0 01.32-6.16c1.64-1.58 5.34-1.46 7.05.07a7.07 7.07 0 012.42 7.22c-1.17 5.18-5.93 8.32-11.35 7.68-11.31-1.34-14.81-16-7.87-24.13 9.87-11.56 25.41-7.65 34.92 1.82 4.73 4.71 6.35 10.28 6.73 16.92 3.59-5.2 10.63-7.14 16.48-5.11 6.38 2.21 8.65 8.05 6.47 13.33-1.56 3.77-5.75 5.31-9.08 4.89-3.2-.4-5.14-2.94-5.14-6.1 0-1.72 1.1-3.12 2.56-3.68 1.84-.71 4.92.07 5.12 2.39.29.85.29 1.79-.02 2.63 3.29-2.97 2.43-7.8-1.15-9.25-3.91-1.59-8.76 1.38-11.64 3.77-2.88 2.38-4.85 5.22-6.63 7.99-6.16 9.61-13 14.73-25.09 15.42-21.04 1.21-37.53-12.72-41.86-33.61 0 0-8.82 24.92-25.01 28.86-16.19 3.95-23.66-7.47-23.66-7.47s-4.9 11.77-16.33 12.27c-8.49.37-13.1-5.2-11.04-12.27 1.18-4.06 5.62-6.41 9.26-5.49 2.11.53 4.26 2.4 4.26 4.74a3.9 3.9 0 11-7.43-1.66c-.51.06-2.64.99-3.12 3.49-1.02 4.71 1.72 7.86 7.27 7.74 8.72-.19 13.16-9.05 15.31-14.65-.39-6.74 1.24-12.64 6.35-16.52 6.66-4.34 16.58-3.06 19.57 4.4 2.33 6.05-.29 12.05-7.28 12.94-3.3.24-5.76-.67-6.79-3.14-1.07-2.57-.45-6.12 3.1-6.12 2.74 0 4.62 2.94 2.91 5.39 4.53.48 5.83-5.38 3.87-8.61-2.99-4.95-9.28-5.17-13.36-2.05-3.11 2.37-4.94 6.69-3.79 11.96 1.56 7.18 9.08 14.29 20.3 10.44 12.93-4.44 17.63-18.79 23.11-30-.74.46-3.53 1.3-6.64 1.27-5.07-.04-8.88-2.99-9.8-7.09-1.24-5.56 2.55-11.15 8.52-10.91 3.06.47 6.11 2.18 6.11 5.56a4.16 4.16 0 11-7.64-2.28c-2.62.49-3.62 4.33-2.83 6.49a6.54 6.54 0 006.18 4.12c9.58-.28 6.9-7.23 8.48-13.97a41.58 41.58 0 015.81-13.47c-4.25.97-9.83.36-13.66-1.84-5.03-2.89-12.94-10.97-5.89-16.46-1.48 6.75 1.81 5.82 15.78 4.38 5.1-.52 8.81-.57 12.08 3.72 11.1-10.02 25.05-14.63 39.73-14.95 9.02-.2 18.19.99 27.17 3.03a194.2 194.2 0 0129.12 9.33l12.93 5.2s-9.45-12.18-11.94-22.89c-3.22-13.85 2.39-27.14 13.55-35.71 8.83-6.79 21.9-9.98 32.15-9.91 10.82.07 20.93 5.09 30.85 8.72 9.1 4.47 22.18 1.67 24.42-8.08 2.08 7.33-1.92 13.98-3.94 15.75-2.86 2.5-6.81 4.92-10.21 5.2 9.89 2.96 1.33 15.12 21.2 11.08-10.52 10.53-26.19 7.29-35.22-1.09 0 0-4.26 5.52-11.84 5.52-2.76 0-11.98-2.49-11.56-10.7 4.77 2.66 7.72 2.52 11.25 1.12 9.43-7.09-8.3-18.25-15.36-19.06-9.1-1.05-20.86.68-28.36 6.26-9.06 6.73-16.32 19-10.9 30.49 1.71-4.88 4.74-8.12 8.31-11.03 5.4-3.89 10.97-4.53 18.18-1.62 10.28 5.31 8.3 15.78 3.52 18.17-4.78 2.39-9.66-.52-9.35-4.58.31-4.06 6.42-3.31 6.42-3.31.55-.73-.71-4.03-3.7-5.77-2.64-1.54-6.61-1.87-11.86 1.83-10.58 7.06-7.89 16.4-.42 27.2s25.24 15.23 25.24 15.23c-3.25-7.93-5.7-17.13-1.45-25.29 3.74-7.18 11.11-8.64 15.89-4.99 2.69 2.05 3.5 5.53 2.05 7.39-3.29 4.24-10.47-.26-6.21-4.48-3.2-1.31-6.57 2.06-7.83 4.66-3.01 6.2-1.43 16.48 2.6 22.09 5.19 7.22 14.47 8.64 14.47 8.64-2.15-3.58-4.37-8.03-5.5-12.53-1.86-7.4 1.07-18.72 11.19-17.57-2.75 1.25-6.97 3.93-2.35 9.7 2.87 3.58 8.57 6.94 10.89 9.27 7.91 7.92 2.43 14.89 2.43 14.89 25.69 3.01 50.16 2.87 70.71-15.66 9.5-8.57 17.11-21.33 19.08-33.98-5.39 13.16-13.55 24.48-25.11 31.17-11.66 6.75-33.31 10.94-42.69-1.87-2.56-3.5-3.33-8.12-1.81-11.81 1.22-2.95 4.07-4.76 7.32-5.12 5.03-.56 8.9 3.88 6.99 8.54a6.76 6.76 0 01-3.89 3.76c4.81 10.57 25.45 5.93 32.63 1.95C341.71 97.32 350.27 82.8 353.4 68c-4.07 5.86-8.31 10.75-14.02 13.74-7.31 3.82-17.8 4.88-23.7-2.09-3.42-4.05-3.02-9.35 5.55-11.5-3.13 2.53-4.81 4.99-1.59 7.76 4.24 3.64 9.54-1.68 10.98-5.68 3.2-8.9 9.31-23.5 21.11-20.24.16-.11-1.93-5.35-7.43-11.1-6.2-6.48-13.34-10.7-22.59-10.15-9.62.57-18.5 6.84-17.21 17.4.45 3.72 2.3 7.19 5.69 9.15 8.62 5 18.38.31 19.11-6.87.69-6.82-6.31-7.63-7.01-7.7a4.75 4.75 0 11-8.38 3.06c0-1.5.72-3.31 1.62-4.48 2.88-3.73 8.7-3.58 12.56-1.66 3.28 1.63 5.91 4.88 5.91 10.25-1.78 13.44-17 18.14-27.11 10.56a17.75 17.75 0 01-6.84-12.21c-1.6-13.24 9.58-22.24 21.98-22.4 10.26-.14 20.04 5.63 26.8 13.05l.06.07c-1.33-6.55-.26-13 2.86-18.9C357.64 6.91 371.47.59 382.56.04c11.09-.54 27.05 4.01 33.18 11.14 0 0 1.79-5.09 5.12-8.32 5.59-5.43 15.78-1.45 15.65 6.65-.05 3.12-1.51 5.3-3.76 6.07-2.84.97-7.39-.28-7.39-3.89a3.96 3.96 0 016.14-3.3l.07.03c0-4.92-5.95-5.66-8.23-1.99-1.82 2.24-2.41 6.66-2.52 9.43a56.3 56.3 0 019.04 12.59C438.23 10.54 457.53.35 476.79.78c19.22.43 36.57 15.57 34.39 36.1 6.76-7.42 16.54-13.18 26.8-13.05 12.39.17 23.57 9.17 21.97 22.43a17.75 17.75 0 01-6.84 12.21C543 66.05 527.78 61.35 526 47.91c0-5.38 2.62-8.62 5.91-10.25 3.85-1.91 9.68-2.06 12.56 1.66a8.02 8.02 0 011.62 4.48 4.75 4.75 0 11-8.38-3.06c-.7.06-7.7.87-7.01 7.7.73 7.18 10.49 11.86 19.11 6.87 3.38-1.96 5.23-5.44 5.69-9.15 1.29-10.56-7.58-16.83-17.21-17.4-9.25-.55-16.39 3.67-22.59 10.15-5.51 5.76-7.59 11-7.43 11.1 11.8-3.27 17.92 11.33 21.11 20.24 1.44 4 6.74 9.32 10.98 5.68 3.22-2.77 1.54-5.23-1.59-7.76 8.58 2.15 8.98 7.45 5.55 11.5-5.9 6.97-16.39 5.9-23.7 2.09-5.71-2.98-9.94-7.87-14.02-13.74 3.13 14.8 11.69 29.33 24.06 36.19 7.18 3.99 27.83 8.62 32.63-1.95a6.76 6.76 0 01-3.89-3.76c-1.92-4.67 1.96-9.11 6.99-8.54 3.24.36 6.1 2.17 7.32 5.12 1.52 3.69.75 8.31-1.81 11.81-9.37 12.82-31.03 8.63-42.69 1.87-11.55-6.69-19.72-18.01-25.11-31.17 1.97 12.65 9.58 25.42 19.08 33.98 20.55 18.53 45.03 18.67 70.71 15.66 0 0-5.48-6.97 2.43-14.89 2.32-2.32 8.02-5.69 10.89-9.27 4.62-5.77.4-8.45-2.35-9.7 10.12-1.15 13.05 10.17 11.19 17.57-1.13 4.5-3.35 8.95-5.5 12.53 0 0 9.28-1.41 14.47-8.64 4.03-5.6 5.62-15.89 2.6-22.09-1.26-2.6-4.64-5.97-7.83-4.66 4.26 4.22-2.91 8.72-6.21 4.48-1.45-1.87-.63-5.34 2.05-7.39 4.78-3.64 12.15-2.19 15.89 4.99 4.25 8.16 1.79 17.36-1.45 25.29 0 0 17.77-4.43 25.24-15.23 7.47-10.8 10.17-20.14-.42-27.2-5.25-3.7-9.23-3.37-11.86-1.83-2.99 1.74-4.25 5.04-3.7 5.77 0 0 6.11-.75 6.42 3.31.31 4.06-4.57 6.97-9.35 4.58-4.78-2.39-6.76-12.86 3.52-18.17 7.22-2.91 12.79-2.27 18.18 1.62 3.59 2.92 6.62 6.16 8.33 11.04zM482.96 33.83c1.3-4.09-1.72-7.5-6.02-7.47-4.67.03-9.95 3.37-11.05 8.03a17.6 17.6 0 001.17 11.06c2.72 5.91 8.46 9.21 14.76 9.85 5.77.59 12.2-.83 16.88-4.22 5.55-4.03 7.91-9.32 8.12-14.83 1.19-17.77-13.59-30.85-30.07-30.94-20.39-.11-37.56 11.94-44.93 30.54 0 0 8.41-10.57 17.03-10.72 9.24-.16 13.19 6.87 13.19 6.87s5.5-10.39 14.98-9.84c7.26.44 12.45 5.55 10.4 13.3-1.44 4.07-4.68 6.29-9.07 5.9a5.45 5.45 0 01-3.84-2.03 5.07 5.07 0 118.45-5.5z"/></svg>