<svg xmlns="http://www.w3.org/2000/svg" viewBox="0 0 290 166.6"><defs/><linearGradient id="a" x1="197.9" x2="197.9" y1="230.3" y2="202.6" gradientTransform="matrix(0 -1 -1 0 230.3 228.3)" gradientUnits="userSpaceOnUse"><stop offset="0" stop-color="#fcf1d0"/><stop offset=".9" stop-color="#fcf1d0"/><stop offset="1" stop-color="#fcf0cf"/></linearGradient><path fill="url(#a)" fill-rule="evenodd" d="M.6 41.9c-1-1.6-.7-3 .9-4 4.6-3.3 8.4-7.4 11.7-12.3 3.8-6.5 8.6-8.4 14.2-5.4 1 5.3-1.4 10.4-7.3 15.2-5.9 4.9-12.4 7-19.5 6.5z" clip-rule="evenodd"/><linearGradient id="b" x1="188.1" x2="188.1" y1="222.9" y2="150.5" gradientTransform="matrix(0 -1 -1 0 230.3 228.3)" gradientUnits="userSpaceOnUse"><stop offset="0" stop-color="#fcf1d0"/><stop offset=".3" stop-color="#fcf1d0"/><stop offset="1" stop-color="#f3e2b8"/></linearGradient><path fill="url(#b)" fill-rule="evenodd" d="M9.6 58.7C7.4 58.2 6.9 57.3 8 56c8.7-8.8 17.4-19 26-30.6 4.8-5.9 10-9.7 15.6-11.5 4-1.2 8-1.2 12.2.2-1.5-2.4-4.2-3.4-8-3-1.8.2-3.6 1-5.4 2.3-4 3.3-8.1 4.6-12.3 3.8-4.3-.8-6.8-3.4-7.5-7.9-.4-2.3.4-4.5 2.4-6.6C33.3.9 35.9.5 38.7 1.5c2.4 1.4 3.6 3.2 3.5 5.2-.1 1.8-1.3 3.2-3.5 4.3-1.4.3-2.4-.2-3.1-1.4-.7-1.3-.5-2.3.7-3.1 1.2-.7 2.5-.5 3.8.6 0-1.6-.5-2.8-1.8-3.6-1.8-1-3.6-.8-5.3.5-1.5 1.5-2 3.5-1.5 6s2.2 4.1 5.4 4.7c3 .6 5.9-.2 8.4-2.3 2.4-2.2 5.8-3.6 10-4.1 4.1-.6 7.4 1.6 10 6.6 3.2 1 5.6 3.4 7.3 7.2-3.4-3.8-8-4.7-13.6-2.7A29.2 29.2 0 0044 33c-3.8 4.6-5 8.5-3.3 11.6 1.7 3.2 5.8 4.7 12.5 4.7a22 22 0 0017.4-.7c5.2-2.6 7.8-6.7 8-12.5 1.7 3.2 1.6 6.9-.3 11 2.2 7 .9 11.3-3.7 13.1a330 330 0 00-11.9 4.5c-3.3 1.3-5 3.1-5 5.6-.3 2.4.7 4.3 3 5.8 2.2 1.4 4 1.4 5.7-.2 1.3-1.7 1.3-3.3 0-4.9-1.2 2.6-2.8 3.1-4.4 1.5-1.7-1.7-1.3-3 1.2-4 2.5-1.2 4.4-.5 5.8 2 1.2 2.4 1 4.6-.4 6.5l-.7.6-.3.3a7 7 0 01-7.8.5 8 8 0 01-4.6-7.4c-.5-3.2 1.1-5.7 4.8-7.6 3.8-1.9 7.8-3.4 11.9-4.6 4-1.2 5.7-4.2 4.9-9A26.1 26.1 0 0166.6 60c-5 2.2-10 3-15.2 2.2a310 310 0 00-41.8-3.5zM23.9 50c-.4-.4-.9-.6-1.5-.6s-1 .2-1.5.6c-.5.4-.7 1-.7 1.6 0 .5.2 1 .7 1.5.4.4 1 .6 1.5.6s1.1-.2 1.5-.6c.4-.5.6-1 .6-1.5 0-.7-.2-1.2-.6-1.6zm8.8-6.1c-1 0-2 .3-2.6 1-.7.7-1 1.6-1 2.6s.3 1.7 1 2.4c.6.7 1.5 1.1 2.5 1.1a4 4 0 002.6-1c.7-.7 1-1.6 1-2.5 0-1-.3-1.9-1-2.6-.7-.7-1.6-1-2.6-1zm.6-12.3a47 47 0 01-12 13.8A29.4 29.4 0 0037 34.8c3.8-5 7-9 9.7-11.7A33 33 0 0158 16.4a14.8 14.8 0 00-14.5 3.1 38.3 38.3 0 00-10.3 12zm-17.9 24c.3-.3.4-.6.4-.9 0-.4 0-.7-.4-1-.2-.2-.5-.4-.9-.3-.4 0-.7.1-1 .3-.2.3-.4.6-.3 1l.3 1c.3.1.6.3 1 .3s.7-.2 1-.4zm43.7-1L43.4 53c-6.3-.8-11.8.2-16.2 3l11.6.8 16 2.3c6.6 1 12.4-1.6 17.3-8-4.5 2.7-8.9 4-13 3.5z" clip-rule="evenodd"/><linearGradient id="c" x1="157.9" x2="157.9" y1="216.3" y2="181.9" gradientTransform="matrix(0 -1 -1 0 230.3 228.3)" gradientUnits="userSpaceOnUse"><stop offset="0" stop-color="#fcf1d0"/><stop offset=".3" stop-color="#fcf1d0"/><stop offset="1" stop-color="#f8ebc5"/></linearGradient><path fill="url(#c)" fill-rule="evenodd" d="M17.5 75.7c-2 .4-3.2-.3-3.5-2.2a26.7 26.7 0 0118.4-9.2c7.6-.7 12.9 1 16 5.6-2 6-6.6 8-14 6.2a43.3 43.3 0 00-16.9-.4z" clip-rule="evenodd"/><linearGradient id="d" x1="126" x2="126" y1="209.1" y2="164.2" gradientTransform="matrix(0 -1 -1 0 230.3 228.3)" gradientUnits="userSpaceOnUse"><stop offset="0" stop-color="#fcf1d0"/><stop offset=".1" stop-color="#fcf1d0"/><stop offset="1" stop-color="#f6e7be"/></linearGradient><path fill="url(#d)" fill-rule="evenodd" d="M21.2 111.6c2-4.3 4.3-7.2 7.4-8.4 2.9-1.3 6.2-.9 9.8 1.1a6 6 0 010-3.8c-4 1.6-7.3 1.8-10 .6-2.8-1-5-3.8-6.8-8 5.3-2 9-2.2 11.4-.7 2.2 1.4 4.2 4 5.8 7.2l.9-1c0-.2 0-.2.2-.2l1-.9a17 17 0 01-7.1-5.9c-1.5-2.3-1.3-6 .6-11.3 4.3 1.7 7 4 8 6.7 1.3 2.7 1 6.1-.5 10a6 6 0 013.8 0c-2-3.6-2.4-6.8-1.1-9.8 1.2-3 4-5.4 8.3-7.3 1.9 4 2 7.6.4 10.8-1.7 3.2-4 5.4-7 6.7.6.2 1 .6 1.6 1l.8 1c1.7-3.4 3.7-5.7 6-7.2 2.3-1.4 6-1 11.3 1-1.9 4.1-4.2 6.8-7 8-2.6 1-6 .8-10-.8.4.6.5 1.3.5 2l-.2 1.7c3.5-1.8 6.7-2.3 9.6-1 2.9 1.3 5.3 4.2 7.2 8.6-4.3 1.9-8 2-11.2.5-3.2-1.6-5.2-4-6-7.3-.2.5-.6 1-1 1.5l-.2.1-1.4 1c3.5 1 6 3.2 7.5 6.4 1.5 3 1.2 6.7-.8 10.9-4.5-2-7.3-4.2-8.5-7.2-1.3-3-1-6.1.9-9.7-.6.2-1.1.2-1.7.2-.7 0-1.4 0-2.1-.4 1.7 4 1.9 7.4.8 10-1.1 2.9-3.7 5-8 7-2-5.3-2.3-9-.9-11.3 1.5-2.3 3.9-4.3 7.3-6l-1.1-.9-1.1-1.5c-1.1 3-3.3 5.3-6.6 7-3 1.6-6.8 1.5-10.8-.4z" clip-rule="evenodd"/><linearGradient id="e" x1="113.7" x2="113.7" y1="161.7" y2="149.1" gradientTransform="matrix(0 -1 -1 0 230.3 228.3)" gradientUnits="userSpaceOnUse"><stop offset="0" stop-color="#f5e7bd"/><stop offset="1" stop-color="#f3e2b8"/></linearGradient><path fill="url(#e)" fill-rule="evenodd" d="M69.2 111.4c-1.8-7.4.2-12 6.2-14 4.6 3.1 6.5 8.5 5.7 16a26.3 26.3 0 01-9.3 18.4c-1.8-.3-2.5-1.5-2.2-3.5 1-5.5.8-11.1-.4-17z" clip-rule="evenodd"/><linearGradient id="f" x1="126.3" x2="126.3" y1="164.7" y2="85.5" gradientTransform="matrix(0 -1 -1 0 230.3 228.3)" gradientUnits="userSpaceOnUse"><stop offset="0" stop-color="#f6e7be"/><stop offset="1" stop-color="#e7d29f"/></linearGradient><path fill="url(#f)" fill-rule="evenodd" d="M96.4 95c.4 5.8 2.4 9.3 5.8 10.4 3.3 1 7.4-.8 12.1-5.5 6-3 10-7.3 11.9-12.8 1.6-5.1.8-9.6-2.5-13.5l2.3.6c2 1.4 3.5 3.6 4.6 6.5 6.4 3.4 8.7 7.3 6.6 11.8l-5.2 11.6c-1.4 3.3-1.3 5.8.3 7.6a6.3 6.3 0 006.2 2c2.7-.5 4-2 4-4.2-.3-2.1-1.5-3.3-3.5-3.6 1 2.8.3 4.2-2 4.2-2.4 0-3-1.2-2.1-3.8 1-2.5 3-3.4 5.6-2.5 2.5.8 4 2.4 4.3 5v1.1a7 7 0 01-5 5.9 7.8 7.8 0 01-8.6-2c-2.7-1.8-3.3-4.9-2-8.8 1.3-4 3-7.8 5.1-11.6 2-3.7 1-7-3-9.8a23.5 23.5 0 01-9.1 26.7 327.8 327.8 0 00-32 27.1c-1.9 1.2-3 1-3.1-.9a292 292 0 00-3.3-40 33 33 0 012.9-19.1c1.9-3.7 4.8-6.5 8.8-8.6-2.8-.6-5.4.6-7.7 3.6a12.2 12.2 0 00-2.3 5.4c-.4 5.2-2.4 9-6 11.5-3.5 2.4-7.2 2.3-11-.3-1.9-1.4-2.9-3.5-2.9-6.4.3-3 2-5 4.6-6.2 2.9-.7 4.9-.3 6.2 1.2 1.2 1.3 1.4 3.2.6 5.5-.7 1.2-1.8 1.6-3.3 1.2-1.4-.5-2-1.3-1.6-2.7.3-1.3 1.3-2.1 3.2-2.2-1.1-1.2-2.5-1.7-4-1.3-1.9.5-3 1.9-3.3 4.2 0 2 1 3.8 3.1 5.2 2.1 1.5 4.6 1.3 7.3-.5a9.2 9.2 0 004.2-7.6c.2-3.3 1.6-6.6 4.2-10 2.5-3.4 6.4-4.2 11.8-2.5 2.7-1.3 6-1.4 9.6-.2l.3.2c-4.9 0-8.7 2.5-11.2 7.8a29.7 29.7 0 00-.9 20.2zM92 131c0-.4-.1-.7-.4-.9-.2-.3-.6-.5-1-.5a1 1 0 00-.8.5c-.3.2-.4.5-.4 1 0 .2 0 .5.4.8.2.2.5.4.9.4.3 0 .7-.2.9-.4.3-.3.4-.6.4-.9zm3.6-6.3c.4-.4.6-1 .6-1.5a2 2 0 00-.6-1.5c-.4-.4-1-.7-1.5-.6-.6-.1-1.1.2-1.5.6-.5.4-.7.9-.7 1.5s.2 1 .7 1.5c.4.4.9.6 1.5.7a3 3 0 001.5-.7zm-.7-11.6c-.1 1 .3 1.8 1 2.5s1.5 1 2.5 1 1.8-.3 2.5-1 1-1.5 1.1-2.5c0-1-.4-1.8-1-2.5a3.4 3.4 0 00-5.1 0 3 3 0 00-1 2.5zm5.7 9.7l8.7-7.5 13-9.6c5.5-4 7.6-10 6.7-18a21.9 21.9 0 01-6.8 11.7l-12.3 10c-4.9 4-8 8.4-9.3 13.4zm-13-21.5c1.7 5.5 2 11.6 1.3 18.4 3.3-6 4.5-12.2 3.7-18.6A111 111 0 0191.3 86c0-3.7 1-8 3.3-12.8-5.1 2.9-7.8 7-8.1 12.4a41 41 0 001.2 15.7z" clip-rule="evenodd"/><linearGradient id="g" x1="143.4" x2="143.4" y1="127.8" y2="111.3" gradientTransform="matrix(0 -1 -1 0 230.3 228.3)" gradientUnits="userSpaceOnUse"><stop offset="0" stop-color="#eeddb0"/><stop offset="1" stop-color="#ebd9aa"/></linearGradient><path fill="url(#g)" fill-rule="evenodd" d="M112.8 92.7c-2.9 1.7-5.2 2.3-6.8 2-1.7-.4-2.8-2.3-3.3-5.7-.6-3.4.1-7 2-10.5 1.8-3.6 5-4.4 9.1-2.4 4.2 2 5.9 4.9 5 8.5-1 3.7-3 6.3-6 8.1z" clip-rule="evenodd"/><linearGradient id="h" x1="135.3" x2="135.3" y1="89.8" y2="80.5" gradientTransform="matrix(0 -1 -1 0 230.3 228.3)" gradientUnits="userSpaceOnUse"><stop offset="0" stop-color="#e8d2a0"/><stop offset="1" stop-color="#e6d09d"/></linearGradient><path fill="url(#h)" fill-rule="evenodd" d="M141.8 89.7a4.6 4.6 0 016.6 0c1 1 1.4 2 1.4 3.3 0 1.3-.5 2.4-1.4 3.3-.9 1-2 1.4-3.3 1.4-1.3 0-2.3-.5-3.3-1.4-.9-.9-1.4-2-1.3-3.3a4 4 0 011.3-3.3z" clip-rule="evenodd"/><linearGradient id="i" x1="190.1" x2="190.1" y1="158" y2="12.5" gradientTransform="matrix(0 -1 -1 0 230.3 228.3)" gradientUnits="userSpaceOnUse"><stop offset="0" stop-color="#fcf1d0"/><stop offset="0" stop-color="#fcf1d0"/><stop offset="1" stop-color="#d0b170"/><stop offset="1" stop-color="#d0b170"/></linearGradient><path fill="url(#i)" fill-rule="evenodd" d="M85.3 36.7l1.3 2.2a60.5 60.5 0 0010.1 12.6 66.1 66.1 0 0048.6 20.2A66.3 66.3 0 00200.4 44l3.6-5.2 1.4-2.2C211 26.7 214 15.4 214 3V0h3.6a70.6 70.6 0 01-21.3 55.2c-8.9 9-19 15-30.1 18.4-.7 0-1.3.4-2 .5a75.1 75.1 0 01-38.2 0l-2.3-.5a70 70 0 01-15.2-6.7s-.2 0-.3-.2c-5.2-3-10-7-14.7-11.5A70.3 70.3 0 0172.2 3.8l.1-3.8h4.4v3c0 12.4 2.8 23.7 8.6 33.7z" clip-rule="evenodd"/><linearGradient id="j" x1="125.9" x2="125.9" y1="85.5" y2="6.4" gradientTransform="matrix(0 -1 -1 0 230.3 228.3)" gradientUnits="userSpaceOnUse"><stop offset="0" stop-color="#e7d29f"/><stop offset="1" stop-color="#d7bc80"/></linearGradient><path fill="url(#j)" fill-rule="evenodd" d="M159 81c1.2-3.2 3-5.5 5.3-7 .6 0 1.2-.3 1.9-.4-3.6 4-4.5 8.6-2.7 13.9 1.7 5.4 5.7 9.7 11.8 12.7 4.6 4.8 8.7 6.7 12.1 5.6 3.3-1 5.3-4.6 5.7-10.5 2-8.1 1.7-15-.8-20.2-2.6-5.4-6.5-8-11.6-7.7 3.9-1.4 7.3-1.4 10.3 0 5.3-1.7 9.2-1 11.8 2.4a19 19 0 014.1 10 9.4 9.4 0 004.4 7.6c2.6 1.7 5 1.9 7 .5 2.3-1.5 3.3-3.2 3.3-5.3-.3-2.2-1.4-3.6-3.3-4.2-1.5-.3-3 0-4 1.3 1.8.2 2.8.9 3.2 2.3.3 1.3-.2 2.2-1.7 2.6-1.4.5-2.5.1-3.2-1.1-.8-2.4-.6-4.2.7-5.6 1.3-1.4 3.3-1.8 6-1.2a7.6 7.6 0 014.6 6.3c0 3-1 5-3 6.4-3.6 2.6-7.2 2.7-10.8.2a13.3 13.3 0 01-5.4-7.7c-.4-1.2-.6-2.4-.7-3.7-.3-2.2-1-4-2.2-5.5-2.4-3-5-4.1-7.7-3.5 4 2 6.8 4.9 8.7 8.6a36 36 0 012.9 19 277.6 277.6 0 00-3.2 40.1c-.2 1.7-1.2 2.1-3 1a301 301 0 00-32-27.2 25.9 25.9 0 01-9.3-12.3 25.1 25.1 0 010-14.4c-4 2.8-4.9 6-2.9 9.8 2 3.7 3.7 7.6 5 11.6 1.4 4 .7 7-1.9 8.8a7.7 7.7 0 01-8.5 2c-3-1-4.7-3-5.1-6.3v-.7-.5c.4-2.3 1.8-3.8 4.3-4.5 2.7-.9 4.6 0 5.5 2.5 1 2.6.3 3.8-2 3.8-2.4 0-3.1-1.4-2.1-4.2-2 .2-3.2 1.4-3.4 3.5-.1 2.3 1.3 3.7 3.9 4.3 2.5.4 4.6-.2 6.3-2 1.5-1.8 1.6-4.3.3-7.7L152.4 93c-2-4.5.1-8.5 6.5-11.8zm36-7.4c2.1 4.8 3.2 9 3.3 12.8 0 3.7-.5 8.7-1.4 15.1a30 30 0 003.7 18.6c-.7-7-.3-13 1.3-18.5 1.3-4.8 1.7-10 1.1-15.6-.3-5.4-3-9.5-8-12.4zm-15.4 36.2l-12.2-10a21.7 21.7 0 01-6.7-11.8c-1 8 1.2 14 6.5 18 5.4 3.9 9.7 7 13 9.7l8.8 7.5a25 25 0 00-9.4-13.4zm18.3 20.6c-.3.2-.4.6-.4.9 0 .3.1.7.4 1 .2.2.6.3 1 .3l1-.3.3-1c0-.3-.2-.7-.4-.9-.3-.3-.6-.4-1-.4-.3 0-.7.1-.9.4zm-4-5.3c.5.4 1 .6 1.5.6a2 2 0 001.5-.6c.5-.4.7-1 .7-1.5 0-.6-.2-1.1-.7-1.5-.4-.5-.9-.7-1.5-.7a2 2 0 00-1.5.7 2 2 0 00-.6 1.5c0 .5.2 1 .6 1.5zm-5.3-9.1a4 4 0 002.5 1 3.6 3.6 0 003.6-3.5c0-1-.4-2-1-2.6a3 3 0 00-2.6-1c-.9 0-1.8.2-2.5 1-.7.6-1 1.5-1 2.6 0 .9.3 1.8 1 2.5z" clip-rule="evenodd"/><linearGradient id="k" x1="96.8" x2="96.8" y1="126.7" y2="103.5" gradientTransform="matrix(0 -1 -1 0 230.3 228.3)" gradientUnits="userSpaceOnUse"><stop offset="0" stop-color="#eeddaf"/><stop offset="1" stop-color="#ead6a6"/></linearGradient><path fill="url(#k)" fill-rule="evenodd" d="M110.1 125.2c4.8-6 10-8.3 15.4-7.3 2.8 5.6 1 10.4-5.5 14.2-5 3.2-9 7.1-12.3 11.7-1.2 1.6-2.5 2-4 1a26.6 26.6 0 016.4-19.6z" clip-rule="evenodd"/><linearGradient id="l" x1="84.2" x2="84.2" y1="107.3" y2="62.8" gradientTransform="matrix(0 -1 -1 0 230.3 228.3)" gradientUnits="userSpaceOnUse"><stop offset="0" stop-color="#ebd7a8"/><stop offset="1" stop-color="#e1ca95"/></linearGradient><path fill="url(#l)" fill-rule="evenodd" d="M123 135.1c4.2-1.8 7.7-2 10.4-1 2.8 1.1 5 3.6 6.7 7.5.2-.5.7-1 1.2-1.6.4-.5 1-.9 1.5-1-4-1.2-6.5-3.2-7.8-6.2-1.2-2.9-1-6.6.8-11.1 4 1.6 6.8 4 7.9 7.4a13 13 0 01-.3 9.5c.5-.2 1.2-.3 1.9-.2l1.3.1a17.6 17.6 0 01-.8-9.4c.5-2.6 3.4-5 8.5-7.2 1.7 4.2 2 7.7.8 10.4-1 2.7-3.7 4.8-7.6 6.5.6.2 1.2.6 1.8 1.2l1 1.3c1.1-3.7 3.1-6.2 6.1-7.4 3-1.2 6.6-.9 11 1-1.6 4.3-4 7.1-7.5 8.2-3.3 1.2-6.4 1-9.3-.9l.3 1.8v.1c0 .7-.1 1.3-.3 2 3.2-1.9 6.4-2.2 9.7-1 3.3 1.1 5.7 4 7.1 8.4-4.4 1.8-8 2-11 .9-3-1.2-5-3.8-6.1-7.5l-1 1.3c-.6.5-1.2 1-1.8 1.2 4 1.6 6.5 3.7 7.6 6.6 1.2 2.7 1 6.2-.8 10.4-5-2.2-8-4.7-8.5-7.3-.6-2.7-.4-5.8.8-9.4l-1.3.2c-.7 0-1.4-.2-1.9-.3 1.3 3 1.4 6 .3 9.6-1.1 3.4-3.8 5.8-8 7.4-1.7-4.5-2-8.2-.7-11.2s3.8-5 7.8-6l-1.5-1.2c-.5-.6-1-1-1.2-1.7-1.7 4-4 6.6-6.7 7.7-2.7 1-6.2.8-10.4-1 2.3-5.2 4.8-8 7.5-8.6 2.6-.5 5.8-.2 9.3 1-.2-.5-.2-1-.2-1.5 0-.6 0-1 .2-1.5a18.6 18.6 0 01-9.3 1c-2.7-.6-5.2-3.5-7.5-8.5z" clip-rule="evenodd"/><linearGradient id="m" x1="193" x2="193" y1="179.7" y2="159.9" gradientTransform="matrix(0 -1 -1 0 230.3 228.3)" gradientUnits="userSpaceOnUse"><stop offset="0" stop-color="#f8ebc5"/><stop offset="1" stop-color="#f5e6bc"/></linearGradient><path fill="url(#m)" fill-rule="evenodd" d="M57.3 43.2c-3.4-.9-5.5-2-6.3-3.5-.9-1.5-.4-3.5 1.7-6.3 2-2.8 5-4.8 8.8-6 3.8-1.3 6.5.3 8.1 4.7 1.5 4.4.7 7.6-2.5 9.5-3.3 1.9-6.5 2.4-9.8 1.6z" clip-rule="evenodd"/><linearGradient id="n" x1="193.5" x2="193.5" y1="151.9" y2="18.2" gradientTransform="matrix(0 -1 -1 0 230.3 228.3)" gradientUnits="userSpaceOnUse"><stop offset="0" stop-color="#fcf1d0"/><stop offset="0" stop-color="#fcf1d0"/><stop offset=".9" stop-color="#d0b170"/><stop offset="1" stop-color="#d0b170"/></linearGradient><path fill="url(#n)" fill-rule="evenodd" d="M91.6 42.9a51.8 51.8 0 01-4.8-7.2 65 65 0 01-8.4-32.9V0h3.4v1.2a60 60 0 0018.5 44.7A60.7 60.7 0 00145 64.3c17.4 0 32.3-6 44.6-18.4a60 60 0 0018.5-44.7V0h4v2.8a65 65 0 01-8.5 32.9l-1.3 2c-1 1.8-2.3 3.5-3.5 5.2l-.7.9-2 2.4-3 3.3-.6.6a64.7 64.7 0 01-47.2 19.6A64.6 64.6 0 0197.9 50h-.1l-2.7-3-2.4-2.7-1.1-1.5z" clip-rule="evenodd"/><linearGradient id="o" x1="143" x2="143" y1="59.4" y2="42.9" gradientTransform="matrix(0 -1 -1 0 230.3 228.3)" gradientUnits="userSpaceOnUse"><stop offset="0" stop-color="#e0c994"/><stop offset="1" stop-color="#dec58e"/></linearGradient><path fill="url(#o)" fill-rule="evenodd" d="M176 76.5c4.3-2 7.4-1.3 9.2 2.4a16 16 0 012 10.5c-.5 3.4-1.6 5.3-3.3 5.6-1.6.4-3.9-.3-6.8-2-3-1.7-5-4.4-6-8-.8-3.7.8-6.5 5-8.5z" clip-rule="evenodd"/><linearGradient id="p" x1="187.9" x2="187.9" y1="20.1" y2="-52.2" gradientTransform="matrix(0 -1 -1 0 230.3 228.3)" gradientUnits="userSpaceOnUse"><stop offset="0" stop-color="#dac085"/><stop offset=".8" stop-color="#d0b170"/><stop offset="1" stop-color="#d0b170"/></linearGradient><path fill="url(#p)" fill-rule="evenodd" d="M231 19.6c-5.7-2-10.2-1.2-13.6 2.8 1.7-3.8 4-6.2 7.2-7.4 2.5-4.9 6-7 10.1-6.6 4.1.6 7.5 2 10 4.1 2.4 2.2 5.2 3 8.4 2.4 3.2-.7 5-2.2 5.5-4.7.4-2.6-.1-4.5-1.6-5.9-1.7-1.4-3.5-1.6-5.3-.6-1.3.8-2 2-1.8 3.6 1.3-1.2 2.6-1.4 3.8-.6 1 .7 1.4 1.7.7 3s-1.7 1.8-3.1 1.5c-2.2-1-3.5-2.6-3.6-4.4 0-1.9 1.1-3.7 3.6-5 2.8-1 5.4-.7 7.7 1 2 2.1 2.8 4.3 2.4 6.5-.8 4.5-3.3 7.1-7.5 8-3.2.6-6.3 0-9.4-1.7-1-.6-2-1.3-3-2.2-1.8-1.3-3.6-2-5.4-2.2-3.8-.4-6.5.5-8 3 4.2-1.4 8.3-1.4 12.2-.2a35.2 35.2 0 0115.5 11.4A296.6 296.6 0 00282 56.2c1.1 1.4.6 2.3-1.6 2.8a298.7 298.7 0 00-41.8 3.5c-5.2.7-10.2 0-15-2.2A24 24 0 01213.2 50c-1 4.8.7 7.8 4.8 9a63 63 0 0111.8 4.6c3.7 1.9 5.3 4.5 4.8 7.6 0 3.4-1.6 5.9-4.6 7.5-2.7 1.3-5.3 1.2-7.7-.6l-.3-.3-.7-.5c-1.5-2-1.6-4.2-.4-6.6 1.4-2.5 3.3-3.2 5.7-2.1 2.5 1 2.8 2.5 1.2 4-1.7 1.8-3 1.3-4.3-1.4-1.3 1.7-1.3 3.3 0 4.9 1.6 1.7 3.5 1.7 5.7.2 2.2-1.4 3.2-3.3 3-5.7 0-2.5-1.8-4.4-5-5.6l-12-4.5c-4.6-1.8-5.8-6.1-3.6-13-2-4.3-2-8-.3-11.2.2 5.7 2.9 10 8 12.5 5.1 2.6 11 2.8 17.3.7 6.7 0 10.9-1.5 12.6-4.7 1.6-3 .5-7-3.3-11.5-4.5-7.1-9.4-11.7-15-13.6zm-.2 35.1c-4.1.3-8.5-.8-13-3.6 5 6.4 10.7 9.1 17.3 8.1l16-2.4 11.5-.9a24.6 24.6 0 00-16-2.8l-15.8 1.6zm38.3-1.6c.4-.4.6-.9.6-1.5a2 2 0 00-.6-1.5c-.5-.4-1-.6-1.6-.6a2 2 0 00-2.1 2.1c0 .6.2 1.1.6 1.5.4.4.9.6 1.5.7.6 0 1.1-.3 1.6-.7zm7.3 2.6c.2-.3.3-.6.3-1 0-.3 0-.7-.3-.9-.3-.3-.6-.4-1-.4-.3 0-.7.1-.9.4-.3.2-.4.6-.4 1 0 .3.1.6.4 1l1 .3a3 3 0 001-.4zm-22.6-8c0 .8.3 1.6 1 2.3.7.7 1.5 1.1 2.5 1.1s1.8-.4 2.5-1a3.4 3.4 0 000-5.1c-.7-.7-1.5-1-2.5-1s-1.8.3-2.5 1-1 1.5-1 2.6zm14.9-2.2a46 46 0 01-12.1-14 40.7 40.7 0 00-10.3-11.9 15 15 0 00-14.5-3c5 1.8 8.7 4.1 11.4 6.8 2.7 2.7 6 6.5 9.8 11.6 3.9 5 9 8.6 15.7 10.5z" clip-rule="evenodd"/><linearGradient id="q" x1="192.9" x2="192.9" y1="10.7" y2="-9" gradientTransform="matrix(0 -1 -1 0 230.3 228.3)" gradientUnits="userSpaceOnUse"><stop offset="0" stop-color="#d9bd83"/><stop offset="1" stop-color="#d3b87a"/></linearGradient><path fill="url(#q)" fill-rule="evenodd" d="M232.6 43.4c-3.3.8-6.6.3-9.8-1.6-3.2-2-4-5.1-2.5-9.5 1.6-4.4 4.3-6 8.1-4.8a17 17 0 018.8 6c2 2.9 2.6 5 1.7 6.4-.9 1.4-3 2.6-6.3 3.5z" clip-rule="evenodd"/><linearGradient id="r" x1="162" x2="162" y1="24.7" y2="15.3" gradientTransform="matrix(0 -1 -1 0 230.3 228.3)" gradientUnits="userSpaceOnUse"><stop offset="0" stop-color="#dbc287"/><stop offset="1" stop-color="#d9be84"/></linearGradient><path fill="url(#r)" fill-rule="evenodd" d="M207 69.7c-1-1-1.4-2.1-1.3-3.4-.1-1.3.4-2.4 1.3-3.3.9-1 2-1.4 3.3-1.4 1.3 0 2.4.4 3.3 1.4.9 1 1.4 2 1.4 3.3a5 5 0 01-1.4 3.4c-1 .9-2 1.3-3.3 1.3-1.3 0-2.4-.4-3.3-1.3z" clip-rule="evenodd"/><linearGradient id="s" x1="199.2" x2="199.2" y1="142.7" y2="28.6" gradientTransform="matrix(0 -1 -1 0 230.3 228.3)" gradientUnits="userSpaceOnUse"><stop offset="0" stop-color="#fcf1d0"/><stop offset=".1" stop-color="#fcf1d0"/><stop offset=".9" stop-color="#d0b170"/><stop offset="1" stop-color="#d0b170"/></linearGradient><path fill="url(#s)" fill-rule="evenodd" d="M185 41.6a54.9 54.9 0 01-40.4 16.6 55.2 55.2 0 01-40.4-16.6A55.2 55.2 0 0187.6 1.2V0h114v1.2c0 15.7-5.6 29.2-16.7 40.4z" clip-rule="evenodd"/><linearGradient id="t" x1="96.5" x2="96.5" y1="67.5" y2="44.3" gradientTransform="matrix(0 -1 -1 0 230.3 228.3)" gradientUnits="userSpaceOnUse"><stop offset="0" stop-color="#e3cd99"/><stop offset="1" stop-color="#dfc58f"/></linearGradient><path fill="url(#t)" fill-rule="evenodd" d="M186 145.1c-1.7 1-3 .7-4.2-1a45.3 45.3 0 00-12.2-11.6c-6.5-3.9-8.4-8.6-5.5-14.3 5.4-1 10.5 1.5 15.3 7.4 5 6 7 12.4 6.5 19.5z" clip-rule="evenodd"/><linearGradient id="u" x1="125.8" x2="125.8" y1="6.5" y2="-38.4" gradientTransform="matrix(0 -1 -1 0 230.3 228.3)" gradientUnits="userSpaceOnUse"><stop offset="0" stop-color="#d7bc80"/><stop offset=".9" stop-color="#d0b170"/><stop offset="1" stop-color="#d0b170"/></linearGradient><path fill="url(#u)" fill-rule="evenodd" d="M230.8 101.3c-2.8-1.2-5-3.8-7-8 5.4-2 9.1-2.3 11.4-.9 2.2 1.4 4.3 3.8 6 7.2l.8-1a9 9 0 011.6-1.2 13 13 0 01-7-6.5c-1.6-3.2-1.5-6.8.4-10.8 4.3 1.9 7.1 4.3 8.3 7.3 1.2 3 .8 6.2-1 9.8.4-.2 1.1-.3 1.7-.3.7 0 1.4.1 2 .3-1.6-4-1.8-7.3-.6-10 1.1-2.7 3.9-5 8.2-6.7 1.9 5.2 2 9 .7 11.3-1.5 2.2-4 4.2-7.4 6 .4.1.8.4 1.1.7l.2.2 1 1.1c1.5-3.4 3.6-5.8 5.8-7.3 2.3-1.4 6-1.2 11.3.7-1.7 4.3-4 7-6.7 8.1-2.7 1.2-6.1 1-10-.7.2.7.3 1.3.3 2.1l-.3 1.8c3.6-2 6.9-2.4 9.8-1.2 3 1.2 5.4 4 7.3 8.5-4 1.9-7.6 2-10.8.4a13 13 0 01-6.5-7 9 9 0 01-1.1 1.5l-1.1.8c3.4 1.7 5.7 3.7 7.2 6 1.4 2.4 1 6-1 11.4-4.1-2-6.7-4.2-7.8-7-1.2-2.7-1-6 .8-10-.7.3-1.4.4-2.1.4-.6 0-1.2 0-1.7-.2 1.9 3.5 2.2 6.8.9 9.7-1.2 2.9-4.2 5.3-8.6 7.2-2-4.2-2.3-7.8-.8-11 1.5-3.2 4-5.3 7.6-6.3-.5-.2-1-.6-1.4-1l-.2-.2c-.4-.4-.8-.9-1-1.4-.8 3.2-2.9 5.6-6 7.3-3.3 1.6-7 1.4-11.3-.6 2-4.5 4.3-7.3 7.2-8.5 3-1.3 6.1-1 9.7 1l-.2-1.8c0-.7 0-1.4.4-2-4 1.6-7.4 2-10 .8z" clip-rule="evenodd"/><linearGradient id="v" x1="113.3" x2="113.3" y1="22" y2="9.3" gradientTransform="matrix(0 -1 -1 0 230.3 228.3)" gradientUnits="userSpaceOnUse"><stop offset="0" stop-color="#dbc186"/><stop offset="1" stop-color="#d7bc81"/></linearGradient><path fill="url(#v)" fill-rule="evenodd" d="M220.3 111.8a46 46 0 00-.4 16.9c.4 1.9-.4 3.1-2.1 3.4a26 26 0 01-9.3-18.2c-.7-7.6 1-13 5.6-16 6 1.8 8 6.5 6.2 13.9z" clip-rule="evenodd"/><linearGradient id="w" x1="157.7" x2="157.7" y1="-11.2" y2="-45.6" gradientTransform="matrix(0 -1 -1 0 230.3 228.3)" gradientUnits="userSpaceOnUse"><stop offset="0" stop-color="#d3b879"/><stop offset=".7" stop-color="#d0b170"/><stop offset="1" stop-color="#d0b170"/></linearGradient><path fill="url(#w)" fill-rule="evenodd" d="M241.5 70c3.1-4.4 8.5-6.4 16-5.5 7.7.7 13.8 3.8 18.4 9.2-.3 1.8-1.5 2.5-3.4 2.2-5.6-1-11.2-.8-17 .3-7.3 2-12-.1-14-6.1z" clip-rule="evenodd"/><linearGradient id="x" x1="197.8" x2="197.8" y1="-31.9" y2="-59.7" gradientTransform="matrix(0 -1 -1 0 230.3 228.3)" gradientUnits="userSpaceOnUse"><stop offset="0" stop-color="#d0b473"/><stop offset=".1" stop-color="#d0b170"/><stop offset="1" stop-color="#d0b170"/></linearGradient><path fill="url(#x)" fill-rule="evenodd" d="M262.5 20.3c5.6-2.9 10.3-1 14.2 5.5 3.2 4.9 7.1 8.9 11.8 12.2 1.7 1.2 2 2.5.9 4-7.2.6-13.7-1.5-19.6-6.4-6-4.8-8.4-10-7.3-15.4z" clip-rule="evenodd"/></svg>