<svg xmlns="http://www.w3.org/2000/svg">
  <symbol id="ph" viewBox="0 0 64 64"><path d="M40 2c-.6 0-1 .5-1 1s.5 1 1 1c11 0 20 9 20 20 0 .6.5 1 1 1 .6 0 1-.5 1-1A22 22 0 0040 2zm0 6a1 1 0 00-1 1c0 .6.5 1 1 1a14 14 0 0114 14c0 .6.5 1 1 1 .6 0 1-.5 1-1A16 16 0 0040 8zm0 6a1 1 0 00-1 1c0 .6.5 1 1 1a8 8 0 018 8c0 .6.5 1 1 1 .6 0 1-.5 1-1a10 10 0 00-10-10zm16.1 25.5a37 37 0 01-8-2c-2.5-.9-5.3-.3-7.2 1.6l-3.1 3.1c-6.7-3.9-12.2-9.4-16.1-16l3.1-3.2a6.8 6.8 0 001.6-7.2c-1-2.5-1.6-5.2-2-8A6.9 6.9 0 0017.6 2H8.2c-1.8.2-3.4 1-4.6 2.5a6.8 6.8 0 00-1.6 5 58.8 58.8 0 0027 43.4A59 59 0 0055.1 62c3.8 0 6.8-3 6.8-6.8v-8.8c0-3.4-2.5-6.4-5.9-6.9zm3.9 6.9v8.8c0 2.6-2.1 4.8-4.8 4.8h-.5A57 57 0 014 9.2C4 8 4.3 6.8 5.1 5.8A4.7 4.7 0 018.8 4h8.8c2.4 0 4.5 1.8 4.8 4.1.4 2.9 1.1 5.7 2.1 8.4.7 1.8.3 3.8-1 5.1l-3.8 3.7a1 1 0 00-.1 1.2 47.7 47.7 0 0017.9 17.9c.3.2.8.1 1.2-.2l3.7-3.7a4.9 4.9 0 015-1c2.8 1 5.6 1.7 8.5 2 2.4.4 4.2 2.5 4.1 4.9zM17 6H8.8h-.2A2.8 2.8 0 006 9c.4 3.6 1 7 2 10.3a1 1 0 002-.6A54.8 54.8 0 018.2 8.3c0-.1.3-.3.6-.3H17c.6 0 1-.5 1-1s-.4-1-1-1zm40 40a1 1 0 00-1 1v8.2c0 .2 0 .4-.2.5l-.6.3H55c-3.4-.4-6.7-1-9.8-2a1 1 0 00-1.3.7c-.1.5.2 1.1.7 1.2A57.5 57.5 0 0055.2 58c.7 0 1.4-.3 2-.8.5-.6.8-1.3.8-2V47c0-.5-.5-1-1-1z"/></symbol>
  <symbol id="vk" viewBox="0 0 64 64"><path d="M53 42.2l-.6-1a25.4 25.4 0 00-4.2-5.2l-2-1.9a.5.5 0 010-.6l2.6-4c.4-.5.8-1 1.1-1.7l2.3-4.3c.4-.8.4-1.6 0-2.4A2.4 2.4 0 0050 20h-5c-1 0-2 .7-2.5 1.6l-.5 1.2a30 30 0 01-5.5 8.4v-8.8c0-1.3-1-2.4-2.3-2.4h-7.1a2.1 2.1 0 00-1.8 3.4l.5.7c.5.7.8 1.5.8 2.3v6.5A26 26 0 0121 22a3 3 0 00-2.9-2h-5c-.8 0-1.4.3-1.9.8-.4.6-.5 1.3-.3 2l1 3.4c.5 2 1.3 4 2.3 6a1.2 1.2 0 002-1.1c-.9-1.8-1.6-3.6-2.1-5.6l-1-3.2h5c.3 0 .6.1.6.4A29 29 0 0025.5 35a2 2 0 002.2.5 2 2 0 001.3-1.9v-7.3c0-1.3-.4-2.6-1.2-3.7l-.2-.3h6.6v9.4a2 2 0 002.9 1.8l.5-.2.6-.4c2.5-2.7 4.5-5.8 6-9.2l.6-1.2.2-.2h5.1v.1l-2.3 4.4-1 1.4-2.6 3.9c-.8 1.2-.7 2.7.4 3.7l2 2c1.4 1.3 2.7 2.9 3.8 4.6l.6 1v.2h-4.5A2 2 0 0145 43l-4.4-4.4c-1-1-2.3-1.8-3.7-2.1-.6-.2-1.3 0-1.8.4s-.8 1-.8 1.7V43c0 .4-.3.7-.7.7-3.4 0-6.7-1.1-9.4-3.2a30 30 0 01-3-2.7c-.5-.4-1.2-.4-1.7 0-.4.5-.4 1.2 0 1.7 1 1 2.1 2 3.3 2.9 3 2.3 6.9 3.6 10.8 3.6a3 3 0 003-3V39c.9.2 1.7.7 2.4 1.3l4.3 4.5c.8.9 2 1.3 3.2 1.3h4.3a2.5 2.5 0 002.2-3.8zm-34.6-7.7c-.4-.5-1.1-.6-1.6-.3-.6.4-.7 1.1-.3 1.7l1-.7-1 .7a1.2 1.2 0 001.6.3c.6-.4.7-1.2.3-1.7zM26 54h-9.5c-.7 0-1.2.6-1.2 1.2s.5 1.2 1.2 1.2H26c.7 0 1.2-.5 1.2-1.2S26.6 54 26 54zm5.3 0c-.6 0-1.1.6-1.1 1.2s.5 1.2 1.1 1.2c.7 0 1.2-.5 1.2-1.2S32 54 31.3 54zm23-52H9.7A7.7 7.7 0 002 9.7v44.6C2 58.5 5.5 62 9.7 62h44.6c4.2 0 7.7-3.5 7.7-7.7V9.7C62 5.5 58.5 2 54.3 2zm5.4 52.3c0 3-2.5 5.4-5.4 5.4H9.7c-3 0-5.4-2.5-5.4-5.4V9.7c0-3 2.5-5.4 5.4-5.4h44.6c3 0 5.4 2.5 5.4 5.4v44.6z"/></symbol>
  <symbol id="fb" viewBox="0 0 64 64"><path d="M32 46c-.7 0-1.2.5-1.2 1.1 0 .7.5 1.2 1.2 1.2s1.2-.5 1.2-1.1c0-.7-.6-1.2-1.2-1.2zM50.5 2h-37C7.2 2 2 7.2 2 13.5v37C2 57 7.2 62 13.5 62H32c.7 0 1.2-.5 1.2-1.2v-9c0-.7-.6-1.2-1.2-1.2s-1.2.5-1.2 1.1v8H13.5c-5 0-9.2-4.1-9.2-9.2v-37c0-5 4.1-9.2 9.2-9.2h37c5 0 9.2 4.1 9.2 9.2v37c0 5-4.1 9.2-9.2 9.2H43V39h6.8c.6 0 1.1-.5 1.2-1l.8-8.4c0-.4 0-.7-.3-1-.2-.2-.5-.3-.9-.3H43v-4.4c0-.8.3-1.1 1-1.1h6.6c.6 0 1.2-.5 1.2-1.2v-8.2c0-.6-.6-1.1-1.2-1.1h-8.7c-5 0-7.6 2.1-9 4a12.3 12.3 0 00-2 7.1v5H25c-.7 0-1.2.4-1.2 1v8.4c0 .7.5 1.2 1.2 1.2h5.7v3.3c0 .7.5 1.2 1.2 1.2s1.2-.5 1.2-1.2v-4.5c0-.7-.6-1.2-1.2-1.2h-5.7v-6H32c.7 0 1.2-.5 1.2-1.1v-6.1c0-2.7.8-8.8 8.7-8.8h7.5v5.8H44c-1.6 0-3.3 1-3.3 3.5v5.5c0 .7.5 1.2 1.1 1.2h7.6l-.7 6h-6.9c-.6 0-1.1.6-1.1 1.2v23c0 .7.5 1.2 1.1 1.2h8.7C56.9 62 62 57 62 50.5v-37C62 7.2 56.9 2 50.5 2zM8.8 14c-.6 0-1.2.5-1.2 1.2V25c0 .6.6 1.1 1.2 1.1S10 25.6 10 25v-9.8c0-.7-.6-1.2-1.2-1.2zm0 14.9c-.7 0-1.2.5-1.2 1.2 0 .6.6 1.1 1.2 1.1s1.2-.5 1.2-1.1c0-.7-.6-1.2-1.2-1.2z"/></symbol>
  <symbol id="ig" viewBox="0 0 64 64"><path d="M44.4 2H19.6C9.9 2 2 9.9 2 19.6v24.8C2 54.1 9.9 62 19.6 62h24.8C54.1 62 62 54.1 62 44.4V19.6C62 9.9 54.1 2 44.4 2zm15.3 42.4c0 8.4-6.9 15.3-15.3 15.3H19.6c-8.4 0-15.3-6.9-15.3-15.3V19.6c0-8.4 6.9-15.3 15.3-15.3h24.8c8.4 0 15.3 6.9 15.3 15.3v24.8zM44.4 7.2H19.6c-6.9 0-12.4 5.5-12.4 12.4v24.8c0 6.9 5.5 12.4 12.4 12.4h7.1c.7 0 1.2-.5 1.2-1.1s-.5-1.2-1.2-1.2h-7.1a10 10 0 01-10.1-10v-25a10 10 0 0110-10h25a10 10 0 0110 10v25a10 10 0 01-10 10h-7.1c-.7 0-1.2.5-1.2 1.2s.5 1.1 1.1 1.1h7.1c6.9 0 12.4-5.5 12.4-12.4V19.6c0-6.9-5.5-12.4-12.4-12.4zM32.8 54.8c-.2-.2-.5-.3-.8-.3s-.6.1-.8.3c-.2.3-.4.6-.4.9s.2.6.4.8c.2.2.5.3.8.3s.6 0 .8-.3c.3-.2.4-.5.4-.8s-.2-.6-.4-.9zM22.6 20.3c-.4-.5-1.2-.6-1.7-.1a1.2 1.2 0 00.8 2c.3 0 .6 0 .8-.2.5-.5.6-1.3.1-1.8zm9.4-4.5c-2.6 0-5.1.6-7.4 1.8-.6.3-.8 1-.5 1.6.3.6 1 .8 1.6.5a13.8 13.8 0 11-5.7 5.5c.3-.6 0-1.3-.5-1.6-.5-.3-1.3-.1-1.6.4a16.2 16.2 0 0014 24.2 16.2 16.2 0 00.1-32.4zm0 5.6a10.6 10.6 0 100 21.2 10.6 10.6 0 000-21.2zm0 18.8a8.2 8.2 0 110-16.4 8.2 8.2 0 010 16.4zm15.4-28a4.5 4.5 0 100 8.9 4.5 4.5 0 000-9zm0 6.5c-1.2 0-2.1-1-2.1-2s1-2.2 2-2.2 2.2 1 2.2 2.1-1 2.1-2.1 2.1z"/></symbol>
  <symbol id="wa" viewBox="0 0 64 64"><path d="M26.26 56.61a1.2 1.2 0 01-1.11-.78 1.17 1.17 0 111.11.78zm13.02-9.89c-2.9 0-7.99-1.2-14.41-7.62-6.31-6.31-8.11-10.25-7.39-16.2.08-.74.27-1.47.56-2.25v-.01a8.83 8.83 0 011.36-2.34l.69-.7a4.49 4.49 0 013.2-1.35h.02c1.21 0 2.34.47 3.19 1.32l2.57 2.57a4.53 4.53 0 010 6.39l-.17.17-.03.03-.99.93a19.6 19.6 0 003.54 4.88c1.88 1.88 3.49 2.76 4.9 3.54l.07.04 1.14-1.14a4.53 4.53 0 016.39 0l2.48 2.48a4.49 4.49 0 01-.03 6.41l-.7.69-.1.09a9.94 9.94 0 01-4.52 1.9h-.02c-.43.09-1.02.17-1.75.17zm1.76-.17h-.01.01zM20.23 21.49a7 7 0 00-.42 1.68v.01c-.55 4.56.31 7.86 6.72 14.26 7.44 7.43 12.63 7.09 14.05 6.81l.18-.03a7.37 7.37 0 003.31-1.37l.65-.64a2.16 2.16 0 00.02-3.08l-2.48-2.48a2.17 2.17 0 00-3.06 0l-1.76 1.76c-.37.37-.94.45-1.39.2l-.17-.09-.31-.17-.36-.2a21.62 21.62 0 01-5.44-3.94 21.93 21.93 0 01-3.97-5.47l-.18-.33-.15-.29a1.63 1.63 0 01-.06-.13 1.18 1.18 0 01.22-1.43l1.63-1.54.16-.16a2.18 2.18 0 000-3.06l-2.57-2.57a2.16 2.16 0 00-3.08.02l-.64.65a6.88 6.88 0 00-.9 1.59zM32.11 57.3h-.55c-.65 0-1.18-.53-1.17-1.18s.53-1.17 1.18-1.17h.55A22.99 22.99 0 0054.94 32C54.94 19.35 44.65 9.06 32 9.06a22.96 22.96 0 00-18.5 36.51l1.35 1.83c.21.29.28.66.19 1.01L13.9 52.6l4.44-1.48c.31-.1.65-.07.93.08l2.24 1.22a1.18 1.18 0 01-1.13 2.07l-1.79-.98-6.04 2.01c-.41.14-.86.04-1.18-.26a1.2 1.2 0 01-.33-1.16l1.57-5.76-1.01-1.37A25.33 25.33 0 0132 6.7 25.33 25.33 0 0157.3 32a25.35 25.35 0 01-25.19 25.3zM32 62c-4.84 0-9.63-1.18-13.89-3.4L6.39 61.74a1.18 1.18 0 01-1.45-1.4l2.55-11.03A29.8 29.8 0 012 32c0-8.01 3.12-15.55 8.79-21.21S23.99 2 32 2s15.55 3.12 21.21 8.79S62 23.99 62 32s-3.12 15.55-8.79 21.21S40.01 62 32 62zm-13.75-5.84c.19 0 .39.05.56.14a27.68 27.68 0 0040.84-24.31C59.65 16.74 47.24 4.35 32 4.35A27.69 27.69 0 009.7 48.36c.2.28.28.63.2.96l-2.23 9.64 10.27-2.76c.1-.02.21-.04.31-.04z"/></symbol>
  <symbol id="mg" viewBox="0 0 64 64"><path d="M35.5 41.5c-.5 0-1-.1-1.4-.5L27 35l-12.5 5.3c-.9.4-2 .1-2.6-.7-.6-.8-.6-2 0-2.7l3.5-4.5c.4-.5 1.1-.6 1.6-.2.5.4.6 1.1.2 1.6l-3 4 12.5-5.3c.4-.1 1 0 1.3.2l7.4 6.5 14.2-16.3L36 28.3c-.4.2-.8.1-1.2-.2l-7.4-6.5-3.6 4c-.4.5-1.1.6-1.6.1s-.5-1.1-.1-1.6l3.6-4.2c.8-.9 2.2-1 3.1-.2l7 6.2 13.6-5.4c.9-.3 2 0 2.6.8.5.8.5 2-.2 2.7L37 41c-.4.4-1 .6-1.6.6zM13.7 38zm6-8c-.5 0-1-.3-1-.7-.2-.5 0-1 .3-1.3.4-.3 1-.4 1.3-.1a1.2 1.2 0 01-.6 2.2zm-5.1 31.5l-.6-.1c-.4-.2-.6-.5-.6-1l-.7-8.4a27 27 0 01-1.8-41.4C16.4 5.4 24 2.4 32 2.4s15.5 3 21.2 8.2a27 27 0 010 39.8 30.8 30.8 0 01-29.6 7l-8.6 4-.4.1zM32 4.8C16.7 4.8 4.3 16.3 4.3 30.5a25 25 0 0010.2 20c.3.2.4.5.5.8l.6 7.3 7.4-3.4c.2-.2.5-.2.8 0 2.6.7 5.4 1 8.2 1 15.3 0 27.7-11.5 27.7-25.7S47.2 4.8 32 4.8z"/></symbol>
  <symbol id="ch" viewBox="0 0 64 64"><path d="M29.5 59.5A27.5 27.5 0 1144.3 8.9c.9.5 1.2 1.7.6 2.5-.6 1-1.7 1.2-2.6.6a23.8 23.8 0 1010.8 17.7c0-1 .7-2 1.7-2 1-.2 2 .6 2 1.6.2.9.2 1.8.2 2.7a27.5 27.5 0 01-27.5 27.5zm3.1-21.3c-.5 0-1-.1-1.3-.5L20 26.4a1.9 1.9 0 012.7-2.6l10 10L58.7 7.5a1.9 1.9 0 012.6 2.6L34 37.7c-.3.4-.8.5-1.3.5z"/></symbol>
  <symbol id="an" viewBox="0 0 64 64"><path d="M37.5 33.4l-29 28c-.3.4-.8.6-1.3.6s-1.1-.2-1.5-.6l-3-3A2 2 0 012 57c0-.5.3-1 .6-1.4L27 32 2.6 8.4C2.2 8 2 7.4 2 7s.3-1 .6-1.4l3.1-3c.4-.4 1-.6 1.5-.6s1 .2 1.4.6l29 28c.3.4.5 1 .5 1.4s-.2 1-.6 1.4zm23.9 0l-29 28c-.3.4-.9.6-1.4.6-.5 0-1-.2-1.4-.6l-3.1-3a2 2 0 01-.7-1.4c0-.5.3-1 .7-1.4L50.9 32 26.5 8.4c-.4-.4-.7-1-.7-1.4s.3-1 .7-1.4l3-3c.4-.4 1-.6 1.5-.6s1 .2 1.4.6l29 28c.4.4.6 1 .6 1.4s-.3 1-.6 1.4z"/></symbol>
  <symbol id="ap" viewBox="0 0 64 64"><path d="M26.5 30.6l29-28c.3-.4.9-.6 1.3-.6.5 0 1.1.2 1.5.6l3 3c.5.4.7 1 .7 1.4s-.3 1-.6 1.4L37 32l24.4 23.6c.3.4.6 1 .6 1.4 0 .5-.3 1-.6 1.4l-3.1 3c-.4.4-1 .6-1.5.6s-1-.2-1.4-.6l-29-28c-.3-.4-.5-1-.5-1.4s.2-1 .6-1.4zm-23.9 0l29-28c.3-.4.9-.6 1.4-.6s1 .2 1.4.6l3.1 3c.4.4.7 1 .7 1.4s-.3 1-.7 1.4L13.1 32l24.4 23.6c.4.4.7 1 .7 1.4 0 .5-.3 1-.7 1.4l-3 3c-.4.4-1 .6-1.5.6s-1-.2-1.4-.6l-29-28c-.4-.4-.6-1-.6-1.4s.3-1 .6-1.4z"/></symbol>
  <symbol id="mn" viewBox="0 0 64 64"><path d="M58 9a2 2 0 012 2v42a2 2 0 01-2 2H6a2 2 0 01-2-2V11c0-1.1.9-2 2-2h52m0-2H6a4 4 0 00-4 4v42a4 4 0 004 4h52a4 4 0 004-4V11a4 4 0 00-4-4zm-7.5 23.5h-37c-.8 0-1.5.7-1.5 1.5s.7 1.5 1.5 1.5h37c.8 0 1.5-.7 1.5-1.5s-.7-1.5-1.5-1.5zm0-9h-37c-.8 0-1.5.7-1.5 1.5s.7 1.5 1.5 1.5h37c.8 0 1.5-.7 1.5-1.5s-.7-1.5-1.5-1.5zm0 18h-37c-.8 0-1.5.7-1.5 1.5s.7 1.5 1.5 1.5h37c.8 0 1.5-.7 1.5-1.5s-.7-1.5-1.5-1.5z"/></symbol>
  <symbol id="like" viewBox="0 0 512 512"><path d="M256 0C114.8 0 0 114.8 0 256s114.8 256 256 256 256-114.8 256-256S397.2 0 256 0zm0 490.7C126.6 490.7 21.3 385.4 21.3 256S126.6 21.3 256 21.3 490.7 126.6 490.7 256 385.4 490.7 256 490.7z"/><path d="M421.1 246l-5.1-8.2v-3.1a42.7 42.7 0 00-42.7-42.7h-40.1l-1.5-2.5 19.7-38.4a30.6 30.6 0 00-27.4-44.4h-4.7c-2.8 0-5.4 1-7.4 3l-76 73.8a75.1 75.1 0 00-22.6 53.5v51a74.8 74.8 0 0074.7 74.7h67.5c11.8 0 22.8-6 29.6-16l34.3-55.2c4.8-7.1 7.3-15 7.3-22.9 0-7-.7-15.3-5.6-22.6zm-19.6 34L367 335a14 14 0 01-11.6 6.3H288c-29.4 0-53.3-23.9-53.3-53.3v-51c0-14.3 5.9-28.3 16.1-38.2l72.8-70.8h.4a9.3 9.3 0 018.4 13.4l-19.7 38.4a22.8 22.8 0 00.8 22.5c4.2 6.9 11.6 11 19.7 11h40.1c11.8 0 21.4 9.6 21.4 21.4v6.1c0 2 .5 4 1.6 5.7l6.9 11c1.5 2.4 2.1 5.6 2.1 11.1a21 21 0 01-3.8 11.4zM160 192h-42.7a32 32 0 00-32 32v106.7a32 32 0 0032 32H160a32 32 0 0032-32V224a32 32 0 00-32-32zm10.7 138.7c0 5.9-4.8 10.6-10.7 10.6h-42.7c-5.8 0-10.6-4.7-10.6-10.6V224c0-5.9 4.8-10.7 10.6-10.7H160c5.9 0 10.7 4.8 10.7 10.7v106.7z"/></symbol>
  <symbol id="upload" viewBox="0 0 26 28"><path d="M20 21c0-0.547-0.453-1-1-1s-1 0.453-1 1 0.453 1 1 1 1-0.453 1-1zM24 21c0-0.547-0.453-1-1-1s-1 0.453-1 1 0.453 1 1 1 1-0.453 1-1zM26 17.5v5c0 0.828-0.672 1.5-1.5 1.5h-23c-0.828 0-1.5-0.672-1.5-1.5v-5c0-0.828 0.672-1.5 1.5-1.5h7.266l2.109 2.125c0.578 0.562 1.328 0.875 2.125 0.875s1.547-0.313 2.125-0.875l2.125-2.125h7.25c0.828 0 1.5 0.672 1.5 1.5zM20.922 8.609c0.156 0.375 0.078 0.812-0.219 1.094l-7 7c-0.187 0.203-0.453 0.297-0.703 0.297s-0.516-0.094-0.703-0.297l-7-7c-0.297-0.281-0.375-0.719-0.219-1.094 0.156-0.359 0.516-0.609 0.922-0.609h4v-7c0-0.547 0.453-1 1-1h4c0.547 0 1 0.453 1 1v7h4c0.406 0 0.766 0.25 0.922 0.609z"></path></symbol>
</svg>
